<svg width="62" height="58" viewBox="0 0 62 58" fill="none" xmlns="http://www.w3.org/2000/svg">
<g filter="url(#filter0_d)">
<path d="M41.3523 12.4635C41.5922 12.4635 41.8321 12.372 42.0152 12.1889C42.3813 11.8228 42.3813 11.2291 42.0152 10.8631L42.0126 10.8604C41.6464 10.4943 41.0542 10.4957 40.6881 10.8617C40.322 11.2278 40.3233 11.8228 40.6894 12.1889C40.8724 12.372 41.1124 12.4635 41.3523 12.4635Z" fill="black"/>
<path d="M50.6757 37.6825C49.9212 36.173 48.0772 35.5589 46.5648 36.3135C45.7375 36.7261 44.8703 37.1067 43.9695 37.456L40.3492 30.2521L44.086 17.4584L47.2164 17.7979C48.901 17.9817 50.2264 17.3046 50.7629 15.9872C51.3535 14.5371 50.7907 12.6531 49.4537 11.6047C49.4491 11.6011 49.4444 11.5975 49.4397 11.594L39.5851 4.16277C38.8464 3.46405 37.8161 3.36402 37.0558 3.92614C36.9292 4.0198 36.8095 4.11983 36.6958 4.22493C34.4117 4.36799 32.552 5.72849 31.0213 8.37327C29.6937 10.6671 28.7642 13.6495 27.8653 16.5336C27.587 17.4265 27.3209 18.2794 27.046 19.1072C25.3497 19.1271 23.6169 18.9636 22.3483 18.6866C21.2103 18.4368 19.4291 18.2987 18.2637 18.263C16.5823 16.2212 14.607 15.0698 12.6634 15.0101C10.8805 14.9548 9.16521 15.8141 7.70186 17.4937C5.67977 19.8146 5.24749 23.0425 4.64908 27.5102C4.50546 28.5824 4.35696 29.6911 4.17339 30.9001C4.12024 31.2501 4.26892 31.6003 4.55758 31.8052C4.7193 31.92 4.90933 31.9782 5.1003 31.9782C5.25049 31.9782 5.40114 31.9422 5.53896 31.8692C6.14392 31.5488 6.75452 31.3098 7.34514 31.0786C8.53717 30.6118 9.75358 30.1342 10.6102 29.0482C11.1892 30.2756 12.0693 31.3852 13.2033 32.2563L10.5003 37.6336C9.43061 37.2368 8.40489 36.7972 7.43477 36.3135C5.92221 35.5589 4.07814 36.1731 3.32402 37.6816C2.95877 38.4106 2.90017 39.2397 3.15911 40.0164C3.41842 40.7942 3.96386 41.4233 4.69521 41.7882C9.65683 44.2622 15.8899 45.8193 22.7205 46.2912C22.7425 46.2927 22.7644 46.2935 22.7861 46.2935C23.2744 46.2935 23.6862 45.9151 23.7204 45.4205C23.7561 44.904 23.3663 44.4563 22.8498 44.4207C16.263 43.9656 10.2746 42.475 5.53202 40.1103C5.24946 39.9694 5.03852 39.7254 4.93783 39.4235C4.83752 39.1224 4.85974 38.8021 5.00074 38.5206C5.29333 37.9354 6.00977 37.6978 6.59786 37.9912C17.8488 43.6014 36.1534 43.6014 47.4017 37.9911C47.9897 37.6977 48.7061 37.9353 48.9991 38.5215C49.1402 38.8031 49.1626 39.124 49.062 39.4251C48.9615 39.7262 48.7506 39.9694 48.4674 40.1103C43.7218 42.4777 37.7308 43.9683 31.1421 44.4206C30.6255 44.456 30.2355 44.9036 30.271 45.4201C30.3065 45.9366 30.7536 46.327 31.2705 46.2911C38.1036 45.822 44.3396 44.2648 49.3035 41.7884C50.0351 41.4243 50.581 40.7959 50.8404 40.0189C51.0999 39.242 51.0413 38.4119 50.6757 37.6825ZM48.303 13.0853C49.0589 13.6826 49.2673 14.6884 49.0264 15.2801C48.7591 15.9363 48.0051 15.998 47.419 15.934L43.5073 15.5098C43.0565 15.4615 42.6338 15.7429 42.5064 16.179L38.4459 30.0807C38.3794 30.3083 38.4016 30.5526 38.5081 30.7645L42.1902 38.0914C41.023 38.474 39.8097 38.8076 38.5626 39.0929L35.4949 33.374C34.6056 31.7153 33.4342 31.0076 31.5782 31.0076H28.5243V26.8942C29.3334 26.7173 30.0777 26.3128 30.6792 25.7106C31.5036 24.8851 31.9567 23.7926 31.955 22.635L31.9529 20.2324C34.0462 19.3209 34.5444 17.6198 35.0684 15.8278C35.3948 14.7118 35.7643 13.4479 36.5521 12.0474C36.8543 11.5836 36.9576 11.4021 37.0263 11.2814C37.0872 11.1742 37.1079 11.1381 37.3753 10.7805C37.6071 10.4707 37.6247 10.0505 37.4199 9.72233C36.7043 8.57624 36.9063 6.38155 38.1601 5.44152L48.303 13.0853ZM23.9165 26.9961H26.6495V31.0075H23.9165V26.9961ZM29.6552 17.0915C31.0731 12.5421 32.5317 7.86318 35.3487 6.48889C35.0017 7.72039 35.0785 9.06561 35.5297 10.1346C35.4802 10.2097 35.4428 10.2731 35.3968 10.3537C35.338 10.4571 35.2493 10.6131 34.9654 11.0481C34.9545 11.0646 34.9442 11.0816 34.9345 11.099C34.0301 12.6981 33.6081 14.1415 33.269 15.3014C32.7142 17.1987 32.4348 18.1541 30.754 18.6806C30.2433 18.8172 29.668 18.9181 29.0575 18.9876C29.2605 18.3572 29.4598 17.7183 29.6552 17.0915ZM30.0785 20.7375L30.0802 22.637C30.0811 23.2938 29.8227 23.9148 29.3526 24.3856C28.8789 24.86 28.2519 25.1212 27.587 25.1212H22.9791C21.6058 25.1212 20.4885 24.0062 20.4885 22.6356V20.2978C21.0338 20.357 21.5497 20.4309 21.9473 20.5182C24.0779 20.9835 27.4329 21.1742 30.0785 20.7375ZM6.66142 29.3328C6.53524 29.3822 6.40549 29.433 6.27302 29.4858C6.35542 28.8935 6.43202 28.3214 6.5073 27.7591C7.08292 23.4611 7.46327 20.6218 9.11542 18.7254C10.2126 17.4663 11.3861 16.8475 12.6057 16.8843C13.6702 16.917 14.7865 17.4536 15.8467 18.4244C12.9801 18.9596 10.8971 20.7384 10.119 23.415C9.8718 24.2652 9.78049 25.1377 9.82914 26.0005C9.53486 28.2062 8.44689 28.6337 6.66142 29.3328ZM15.2439 32.3713C15.39 32.0807 15.3736 31.7351 15.2029 31.4583C15.1215 31.3264 15.01 31.219 14.8806 31.1428C12.3643 29.5543 11.1468 26.5953 11.9193 23.9383C12.6239 21.5148 14.743 20.1286 17.7377 20.1286C17.7578 20.1286 17.7781 20.1287 17.7982 20.1288C18.028 20.1305 18.3069 20.1388 18.6135 20.1532V22.6356C18.6135 24.7186 20.0836 26.464 22.0416 26.8938V31.0782C20.7135 31.2937 19.7942 32.0137 19.0624 33.3737L15.9348 39.2038C14.6841 38.9326 13.4659 38.6129 12.2912 38.2452L15.2439 32.3713ZM17.861 39.5794L20.714 34.2611C21.2756 33.2175 21.826 32.8824 22.9791 32.8824H31.5784C32.7334 32.8824 33.2836 33.2171 33.8427 34.26L36.647 39.4879C30.6065 40.6035 23.9362 40.6343 17.861 39.5794Z" fill="black"/>
<path d="M26.9944 44.5619C26.4766 44.5619 26.0569 44.9816 26.0569 45.4994C26.0569 46.0172 26.4766 46.4369 26.9944 46.4369H26.9997C27.5175 46.4369 27.9345 46.0172 27.9345 45.4994C27.9345 44.9816 27.5121 44.5619 26.9944 44.5619Z" fill="black"/>
</g>
<defs>
<filter id="filter0_d" x="0" y="-2" width="62" height="62" filterUnits="userSpaceOnUse" color-interpolation-filters="sRGB">
<feFlood flood-opacity="0" result="BackgroundImageFix"/>
<feColorMatrix in="SourceAlpha" type="matrix" values="0 0 0 0 0 0 0 0 0 0 0 0 0 0 0 0 0 0 127 0"/>
<feOffset dx="4" dy="4"/>
<feGaussianBlur stdDeviation="3.5"/>
<feColorMatrix type="matrix" values="0 0 0 0 0 0 0 0 0 0 0 0 0 0 0 0 0 0 0.25 0"/>
<feBlend mode="normal" in2="BackgroundImageFix" result="effect1_dropShadow"/>
<feBlend mode="normal" in="SourceGraphic" in2="effect1_dropShadow" result="shape"/>
</filter>
</defs>
</svg>
