<svg width="43" height="43" viewBox="0 0 43 43" fill="none" xmlns="http://www.w3.org/2000/svg">
<path d="M10.0334 28.3083C7.66193 28.3083 5.7334 30.2369 5.7334 32.6083C5.7334 34.9798 7.66193 36.9083 10.0334 36.9083C12.4049 36.9083 14.3334 34.9798 14.3334 32.6083C14.3334 30.2369 12.4048 28.3083 10.0334 28.3083ZM10.0334 35.475C8.45239 35.475 7.16676 34.1893 7.16676 32.6083C7.16676 31.0273 8.45248 29.7417 10.0334 29.7417C11.6143 29.7417 12.9 31.0274 12.9 32.6083C12.9 34.1893 11.6143 35.475 10.0334 35.475Z" fill="black"/>
<path d="M34.4001 28.3083C32.0286 28.3083 30.1001 30.2369 30.1001 32.6083C30.1001 34.9798 32.0286 36.9083 34.4001 36.9083C36.7716 36.9083 38.7001 34.9798 38.7001 32.6083C38.7001 30.2369 36.7716 28.3083 34.4001 28.3083ZM34.4001 35.475C32.8191 35.475 31.5335 34.1893 31.5335 32.6083C31.5335 31.0273 32.8192 29.7417 34.4001 29.7417C35.9811 29.7417 37.2667 31.0274 37.2667 32.6083C37.2667 34.1893 35.9811 35.475 34.4001 35.475Z" fill="black"/>
<path d="M42.8861 24.3373L36.4361 14.3039C36.3042 14.0989 36.077 13.975 35.8333 13.975H27.95C27.5537 13.975 27.2334 14.296 27.2334 14.6916V32.6083C27.2334 33.0046 27.5537 33.3249 27.95 33.3249H30.8167V31.8915H28.6667V15.4083H35.442L41.5667 24.9357V31.8917H37.9833V33.325H42.2833C42.6796 33.325 43 33.0047 43 32.6083V24.725C43 24.5881 42.9607 24.4526 42.8861 24.3373Z" fill="black"/>
<path d="M31.5334 23.2917V18.275H37.2667V16.8417H30.8167C30.4204 16.8417 30.1001 17.1627 30.1001 17.5583V24.0083C30.1001 24.4046 30.4204 24.725 30.8167 24.725H41.5667V23.2916H31.5334V23.2917Z" fill="black"/>
<path d="M27.95 8.95837H0.716639C0.321072 8.95837 0 9.27945 0 9.67501V32.6084C0 33.0047 0.321072 33.325 0.716639 33.325H6.45V31.8917H1.43336V10.3917H27.2334V31.8917H13.6166V33.325H27.95C28.3463 33.325 28.6666 33.0047 28.6666 32.6084V9.67501C28.6666 9.27945 28.3463 8.95837 27.95 8.95837Z" fill="black"/>
<path d="M5.0168 29.025H0.716797V30.4584H5.0168V29.025Z" fill="black"/>
<path d="M27.2332 29.025H15.0498V30.4584H27.2332V29.025Z" fill="black"/>
<path d="M42.2831 29.025H39.4165V30.4584H42.2831V29.025Z" fill="black"/>
<path d="M27.9501 11.825H2.8667V13.2583H27.9501V11.825Z" fill="black"/>
<path d="M10.7503 31.8916H9.31689V33.325H10.7503V31.8916Z" fill="black"/>
<path d="M35.1165 31.8916H33.6831V33.325H35.1165V31.8916Z" fill="black"/>
<path d="M12.9001 6.09166H2.8667V7.52502H12.9001V6.09166Z" fill="black"/>
<path d="M1.43336 6.09166H0V7.52502H1.43336V6.09166Z" fill="black"/>
</svg>
