<svg width="62" height="55" viewBox="0 0 62 55" fill="none" xmlns="http://www.w3.org/2000/svg">
<g filter="url(#filter0_d)">
<path d="M14.2 33.5203C11.5528 33.5203 9.40002 35.7512 9.40002 38.4944C9.40002 41.2377 11.5528 43.4686 14.2 43.4686C16.8472 43.4686 19 41.2377 19 38.4944C19 35.7512 16.8472 33.5203 14.2 33.5203ZM14.2 41.8105C12.4352 41.8105 11.0001 40.3232 11.0001 38.4944C11.0001 36.6656 12.4353 35.1784 14.2 35.1784C15.9648 35.1784 17.4 36.6656 17.4 38.4944C17.4 40.3232 15.9648 41.8105 14.2 41.8105Z" fill="black"/>
<path d="M41.4 33.5203C38.7528 33.5203 36.6 35.7512 36.6 38.4944C36.6 41.2377 38.7528 43.4686 41.4 43.4686C44.0472 43.4686 46.2 41.2377 46.2 38.4944C46.2 35.7512 44.0472 33.5203 41.4 33.5203ZM41.4 41.8105C39.6351 41.8105 38.2 40.3232 38.2 38.4944C38.2 36.6656 39.6352 35.1784 41.4 35.1784C43.1648 35.1784 44.5999 36.6656 44.5999 38.4944C44.5999 40.3232 43.1648 41.8105 41.4 41.8105Z" fill="black"/>
<path d="M50.8728 28.9267L43.6728 17.3202C43.5256 17.0831 43.272 16.9397 42.9999 16.9397H34.2C33.7576 16.9397 33.4 17.3111 33.4 17.7687V38.4943C33.4 38.9528 33.7576 39.3233 34.2 39.3233H37.4V37.6653H35V18.5978H42.5631L49.4 29.6189V37.6655H45.3999V39.3234H50.1999C50.6423 39.3234 50.9999 38.9529 50.9999 38.4944V29.3751C51 29.2168 50.956 29.06 50.8728 28.9267Z" fill="black"/>
<path d="M38.2 27.7171V21.9139H44.6001V20.2559H37.4001C36.9577 20.2559 36.6001 20.6273 36.6001 21.0849V28.5461C36.6001 29.0046 36.9577 29.3751 37.4001 29.3751H49.4001V27.717H38.2V27.7171Z" fill="black"/>
<path d="M34.2 11.1366H3.79997C3.35841 11.1366 3 11.508 3 11.9656V38.4945C3 38.953 3.35841 39.3235 3.79997 39.3235H10.2V37.6654H4.60003V12.7946H33.4V37.6654H18.2V39.3235H34.2C34.6424 39.3235 35 38.953 35 38.4945V11.9656C35 11.508 34.6424 11.1366 34.2 11.1366Z" fill="black"/>
<path d="M8.60005 34.3494H3.80005V36.0074H8.60005V34.3494Z" fill="black"/>
<path d="M33.4001 34.3494H19.8V36.0074H33.4001V34.3494Z" fill="black"/>
<path d="M50.2 34.3494H47V36.0074H50.2V34.3494Z" fill="black"/>
<path d="M34.2 14.4526H6.19995V16.1107H34.2V14.4526Z" fill="black"/>
<path d="M15.0001 37.6653H13.4V39.3234H15.0001V37.6653Z" fill="black"/>
<path d="M42.2 37.6653H40.6V39.3234H42.2V37.6653Z" fill="black"/>
<path d="M17.4 7.82043H6.19995V9.47852H17.4V7.82043Z" fill="black"/>
<path d="M4.60003 7.82043H3V9.47852H4.60003V7.82043Z" fill="black"/>
</g>
<defs>
<filter id="filter0_d" x="0" y="-2.22632" width="62" height="63.7417" filterUnits="userSpaceOnUse" color-interpolation-filters="sRGB">
<feFlood flood-opacity="0" result="BackgroundImageFix"/>
<feColorMatrix in="SourceAlpha" type="matrix" values="0 0 0 0 0 0 0 0 0 0 0 0 0 0 0 0 0 0 127 0"/>
<feOffset dx="4" dy="4"/>
<feGaussianBlur stdDeviation="3.5"/>
<feColorMatrix type="matrix" values="0 0 0 0 0 0 0 0 0 0 0 0 0 0 0 0 0 0 0.25 0"/>
<feBlend mode="normal" in2="BackgroundImageFix" result="effect1_dropShadow"/>
<feBlend mode="normal" in="SourceGraphic" in2="effect1_dropShadow" result="shape"/>
</filter>
</defs>
</svg>
