<svg width="62" height="62" viewBox="0 0 62 62" fill="none" xmlns="http://www.w3.org/2000/svg">
<g clip-path="url(#clip0)" filter="url(#filter0_d)">
<path d="M50.5141 13.3819L31.8198 3.11661C31.5389 2.96243 31.1983 2.96243 30.9174 3.11661L23.8712 6.98563C23.7225 7.02481 23.5837 7.09952 23.4687 7.20682L12.2235 13.3819C11.9235 13.5463 11.7371 13.8612 11.7371 14.2036V26.6189C9.84017 27.2122 8.10176 28.2585 6.65633 29.7043C2.88875 33.4715 1.92818 39.2173 4.26607 44.0019C4.49312 44.467 5.05452 44.66 5.51961 44.4325C5.98506 44.2051 6.17769 43.6437 5.95064 43.1786C3.96431 39.1133 4.7806 34.2314 7.98201 31.0299C9.98409 29.0279 12.6457 27.9252 15.4769 27.9252C18.3081 27.9252 20.9697 29.0279 22.9718 31.0299C24.9735 33.0317 26.0761 35.6933 26.0761 38.5245C26.0761 41.3556 24.9735 44.0173 22.9714 46.0193C19.77 49.2207 14.888 50.037 10.8227 48.0507C10.3576 47.8233 9.79622 48.0163 9.56917 48.4814C9.34175 48.9468 9.53438 49.5082 9.99984 49.7353C11.7426 50.5871 13.6125 51.0009 15.4688 51.0009C18.7072 51.0005 21.9024 49.74 24.2974 47.345C25.3957 46.2467 26.2636 44.9797 26.8778 43.6023L30.9174 45.8205C31.0581 45.8977 31.2133 45.9362 31.3686 45.9362C31.5239 45.9362 31.6795 45.8977 31.8198 45.8205L50.5141 35.5556C50.8141 35.3908 51.0005 35.0758 51.0005 34.7338V28.2185C51.0005 27.7007 50.5808 27.281 50.063 27.281C49.5451 27.281 49.1255 27.7007 49.1255 28.2185V34.179L32.309 43.413V25.0219L37.859 21.9743V26.8053C37.859 27.1371 38.034 27.444 38.3193 27.6125C38.4665 27.6993 38.6313 27.7428 38.7965 27.7428C38.9517 27.7428 39.1074 27.7044 39.2484 27.6267L43.2544 25.4218C43.5539 25.257 43.7396 24.9424 43.7396 24.6007V18.745L49.1255 15.7879V20.7189C49.1255 21.2367 49.5451 21.6564 50.063 21.6564C50.5808 21.6564 51.0005 21.2367 51.0005 20.7189V14.2036C51.0005 13.8616 50.8141 13.5463 50.5141 13.3819V13.3819ZM31.3686 5.00772L48.1151 14.2036L42.8325 17.1044L26.086 7.90848L31.3686 5.00772ZM31.3686 23.3992L14.6222 14.2036L20.0985 11.1963L36.8453 20.3919L31.3686 23.3992ZM38.7928 19.3225L22.0463 10.127L24.1381 8.97818L40.885 18.1737L38.7928 19.3225ZM24.2974 29.7043C21.9412 27.3481 18.8087 26.0506 15.4769 26.0506C14.8466 26.0506 14.2241 26.0971 13.6121 26.1883V15.7879L30.4344 25.0252V43.4163L27.5146 41.813C27.8021 40.7547 27.9508 39.6509 27.9508 38.5245C27.9508 35.1927 26.6533 32.0601 24.2974 29.7043V29.7043ZM41.865 24.0467L39.734 25.2196V20.9449L41.865 19.7748V24.0467Z" fill="black"/>
<path d="M50.0625 23.5259C49.816 23.5259 49.574 23.6262 49.3997 23.8005C49.2253 23.9749 49.125 24.2166 49.125 24.4634C49.125 24.7098 49.2253 24.9515 49.3997 25.1259C49.574 25.3005 49.816 25.4005 50.0625 25.4005C50.309 25.4005 50.551 25.3005 50.7253 25.1259C50.8997 24.9515 51 24.7098 51 24.4634C51 24.2166 50.8997 23.9749 50.7253 23.8005C50.551 23.6262 50.309 23.5259 50.0625 23.5259Z" fill="black"/>
<path d="M12.3241 39.4609C12.5639 39.4609 12.8042 39.3694 12.9869 39.1866C13.3531 38.8204 13.3531 38.2268 12.9869 37.8606L12.3376 37.2109H17.8784C19.2224 37.2109 20.3159 38.3044 20.3159 39.6484C20.3159 40.9924 19.2224 42.0859 17.8784 42.0859H14.5953C14.0775 42.0859 13.6578 42.5056 13.6578 43.0234C13.6578 43.5409 14.0775 43.9605 14.5953 43.9605H17.8784C20.2562 43.9605 22.1909 42.0262 22.1909 39.6484C22.1909 37.2706 20.2562 35.3363 17.8784 35.3363H12.3376L12.9869 34.6866C13.3531 34.3204 13.3531 33.7268 12.9869 33.3606C12.6211 32.9947 12.0274 32.9947 11.6612 33.3606L9.41122 35.6106C9.04538 35.9768 9.04538 36.5704 9.41122 36.9366L11.6612 39.1863C11.8443 39.3694 12.0842 39.4609 12.3241 39.4609V39.4609Z" fill="black"/>
<path d="M7.31943 47.6203C7.05283 47.6203 6.78806 47.5067 6.60312 47.2867L6.60129 47.2845C6.26804 46.8882 6.31931 46.2972 6.71555 45.9639C7.11179 45.6303 7.70322 45.6816 8.03647 46.0778C8.36936 46.4744 8.31919 47.0666 7.92295 47.3998C7.7468 47.5478 7.53257 47.6203 7.31943 47.6203Z" fill="black"/>
</g>
<defs>
<filter id="filter0_d" x="0" y="0" width="62" height="62" filterUnits="userSpaceOnUse" color-interpolation-filters="sRGB">
<feFlood flood-opacity="0" result="BackgroundImageFix"/>
<feColorMatrix in="SourceAlpha" type="matrix" values="0 0 0 0 0 0 0 0 0 0 0 0 0 0 0 0 0 0 127 0"/>
<feOffset dx="4" dy="4"/>
<feGaussianBlur stdDeviation="3.5"/>
<feColorMatrix type="matrix" values="0 0 0 0 0 0 0 0 0 0 0 0 0 0 0 0 0 0 0.25 0"/>
<feBlend mode="normal" in2="BackgroundImageFix" result="effect1_dropShadow"/>
<feBlend mode="normal" in="SourceGraphic" in2="effect1_dropShadow" result="shape"/>
</filter>
<clipPath id="clip0">
<rect width="48" height="48" fill="white" transform="translate(3 3)"/>
</clipPath>
</defs>
</svg>
