<svg width="143" height="143" viewBox="0 0 143 143" fill="none" xmlns="http://www.w3.org/2000/svg">
<g filter="url(#filter0_d)">
<circle cx="64.5" cy="60.5" r="41.5" fill="url(#paint0_radial)"/>
</g>
<path d="M75.7656 35H54.2344C45.8341 35 39 41.8341 39 50.2344V71.7656C39 80.1659 45.8341 87 54.2344 87H75.7656C84.1659 87 91 80.1659 91 71.7656V50.2344C91 41.8341 84.1659 35 75.7656 35ZM88.9688 71.7656C88.9688 79.0458 83.0458 84.9688 75.7656 84.9688H54.2344C46.9542 84.9688 41.0312 79.0458 41.0312 71.7656V50.2344C41.0312 42.9542 46.9542 37.0312 54.2344 37.0312H75.7656C83.0458 37.0312 88.9688 42.9542 88.9688 50.2344V71.7656Z" fill="black"/>
<path d="M75.7656 39.4688H54.2344C48.2981 39.4688 43.4688 44.2981 43.4688 50.2344V71.7656C43.4688 77.7019 48.2981 82.5312 54.2344 82.5312H60.4297C60.9906 82.5312 61.4453 82.0766 61.4453 81.5156C61.4453 80.9547 60.9906 80.5 60.4297 80.5H54.2344C49.4183 80.5 45.5 76.5817 45.5 71.7656V50.2344C45.5 45.4183 49.4183 41.5 54.2344 41.5H75.7656C80.5817 41.5 84.5 45.4183 84.5 50.2344V71.7656C84.5 76.5817 80.5817 80.5 75.7656 80.5H69.6381C69.0771 80.5 68.6224 80.9547 68.6224 81.5156C68.6224 82.0766 69.0771 82.5312 69.6381 82.5312H75.7656C81.7019 82.5312 86.5312 77.7019 86.5312 71.7656V50.2344C86.5312 44.2981 81.7019 39.4688 75.7656 39.4688Z" fill="black"/>
<path d="M65.718 80.7976C65.5291 80.6087 65.2671 80.5 65 80.5C64.7329 80.5 64.4709 80.6087 64.282 80.7976C64.093 80.9865 63.9844 81.2485 63.9844 81.5156C63.9844 81.7827 64.093 82.0448 64.282 82.2337C64.4709 82.4226 64.7329 82.5312 65 82.5312C65.2671 82.5312 65.5291 82.4226 65.718 82.2337C65.907 82.0448 66.0156 81.7827 66.0156 81.5156C66.0156 81.2485 65.907 80.9865 65.718 80.7976Z" fill="black"/>
<path d="M56.8578 50.8143C56.4742 50.405 55.8316 50.3841 55.4222 50.7675L55.3772 50.8098C54.9692 51.1947 54.9506 51.8375 55.3356 52.2455C55.5354 52.4573 55.8046 52.5641 56.0744 52.5641C56.3245 52.5641 56.5751 52.4723 56.7713 52.2872L56.811 52.2499C57.2203 51.8664 57.2413 51.2236 56.8578 50.8143Z" fill="black"/>
<path d="M65 46.9844C62.7693 46.9844 60.5491 47.5217 58.5795 48.5384C58.0812 48.7956 57.8856 49.4083 58.1429 49.9067C58.4003 50.4051 59.0129 50.6005 59.5113 50.3434C61.218 49.4623 63.0647 49.0156 65 49.0156C71.6082 49.0156 76.9844 54.3918 76.9844 61C76.9844 67.6082 71.6082 72.9844 65 72.9844C58.3918 72.9844 53.0156 67.6082 53.0156 61C53.0156 58.9262 53.5534 56.883 54.5709 55.0913C54.8478 54.6036 54.677 53.9837 54.1892 53.7066C53.7014 53.4297 53.0815 53.6005 52.8045 54.0883C51.6138 56.1851 50.9844 58.5752 50.9844 61C50.9844 68.7282 57.2718 75.0156 65 75.0156C72.7282 75.0156 79.0156 68.7282 79.0156 61C79.0156 53.2718 72.7282 46.9844 65 46.9844Z" fill="black"/>
<path d="M65 51.8594C59.9599 51.8594 55.8594 55.9599 55.8594 61C55.8594 66.0401 59.9599 70.1406 65 70.1406C70.0401 70.1406 74.1406 66.0401 74.1406 61C74.1406 55.9599 70.0401 51.8594 65 51.8594ZM65 68.1094C61.0799 68.1094 57.8906 64.9201 57.8906 61C57.8906 57.0799 61.0799 53.8906 65 53.8906C68.9201 53.8906 72.1094 57.0799 72.1094 61C72.1094 64.9201 68.9201 68.1094 65 68.1094Z" fill="black"/>
<path d="M78.3301 43.8105C76.202 43.8105 74.4707 45.5419 74.4707 47.6699C74.4707 49.798 76.202 51.5293 78.3301 51.5293C80.4581 51.5293 82.1895 49.798 82.1895 47.6699C82.1895 45.5419 80.4581 43.8105 78.3301 43.8105ZM78.3301 49.498C77.3221 49.498 76.502 48.6779 76.502 47.6699C76.502 46.6619 77.3221 45.8418 78.3301 45.8418C79.3381 45.8418 80.1582 46.6619 80.1582 47.6699C80.1582 48.6779 79.3381 49.498 78.3301 49.498Z" fill="black"/>
<defs>
<filter id="filter0_d" x="0" y="0" width="143" height="143" filterUnits="userSpaceOnUse" color-interpolation-filters="sRGB">
<feFlood flood-opacity="0" result="BackgroundImageFix"/>
<feColorMatrix in="SourceAlpha" type="matrix" values="0 0 0 0 0 0 0 0 0 0 0 0 0 0 0 0 0 0 127 0"/>
<feOffset dx="7" dy="11"/>
<feGaussianBlur stdDeviation="15"/>
<feColorMatrix type="matrix" values="0 0 0 0 0.819608 0 0 0 0 0.211765 0 0 0 0 0.133333 0 0 0 1 0"/>
<feBlend mode="normal" in2="BackgroundImageFix" result="effect1_dropShadow"/>
<feBlend mode="normal" in="SourceGraphic" in2="effect1_dropShadow" result="shape"/>
</filter>
<radialGradient id="paint0_radial" cx="0" cy="0" r="1" gradientUnits="userSpaceOnUse" gradientTransform="translate(64.5 60.5) rotate(90) scale(41.5)">
<stop stop-color="#E64733"/>
<stop offset="1" stop-color="#C82E1B"/>
</radialGradient>
</defs>
</svg>
