<svg width="70" height="36" viewBox="0 0 70 36" fill="none" xmlns="http://www.w3.org/2000/svg">
<rect width="36.1006" height="36" rx="4" fill="#FFE6A6"/>
<g clip-path="url(#clip0)">
<path d="M4.52219 19.5574C4.52219 19.5574 3.51315 11.4278 11.3763 10.142C19.2394 8.85628 23.2077 15.3234 23.2077 15.3234H28.6219C30.6555 15.3219 32.3055 16.9644 32.3071 18.9925V18.9954V22.4406H4.47803L4.52219 19.5574Z" fill="#E56353"/>
<path d="M10.969 11.2305V15.7286H6.10669C6.90788 13.537 8.71733 11.8632 10.969 11.2305Z" fill="#3A556A"/>
<path d="M21.7739 15.7286H12.105V11.0217C12.3469 10.9923 12.5918 10.9716 12.8484 10.9599C18.8382 10.701 21.7739 15.7286 21.7739 15.7286Z" fill="#3A556A"/>
<path d="M27.1762 17.2006C24.864 17.2019 22.8088 18.6694 22.063 20.8514H14.0376C13.0777 18.0348 10.0093 16.5271 7.18446 17.4841C5.04376 18.2094 3.5826 20.1868 3.52197 22.44H32.5786C32.497 19.5233 30.1026 17.2009 27.1762 17.2006Z" fill="#FCD462"/>
<path d="M27.3089 26.0333C29.2986 26.0333 30.9116 24.4249 30.9116 22.4407C30.9116 20.4566 29.2986 18.8481 27.3089 18.8481C25.3193 18.8481 23.7063 20.4566 23.7063 22.4407C23.7063 24.4249 25.3193 26.0333 27.3089 26.0333Z" fill="#3A556A"/>
<path d="M27.3089 24.2675C28.3208 24.2675 29.1412 23.4495 29.1412 22.4405C29.1412 21.4315 28.3208 20.6135 27.3089 20.6135C26.2969 20.6135 25.4766 21.4315 25.4766 22.4405C25.4766 23.4495 26.2969 24.2675 27.3089 24.2675Z" fill="#E1E6E9"/>
<path d="M12.4856 22.4407C12.4856 24.4248 10.8728 26.0333 8.88296 26.0333C6.89316 26.0333 5.28052 24.425 5.28052 22.4407C5.28052 20.4565 6.89335 18.8481 8.88315 18.8481C10.8728 18.8483 12.4856 20.4567 12.4856 22.4407Z" fill="#3A556A"/>
<path d="M8.88309 20.6135C7.87115 20.6135 7.05078 21.4315 7.05078 22.4405C7.05078 23.4495 7.87115 24.2675 8.88309 24.2675C9.89504 24.2675 10.7154 23.4495 10.7154 22.4405C10.7137 21.4321 9.89426 20.6151 8.88309 20.6135Z" fill="#E1E6E9"/>
</g>
<path d="M40.5302 7.14161H38.2752V5.12861H45.3812V7.14161H43.1262V12.8286H40.5302V7.14161ZM49.985 13.0046C49.1564 13.0046 48.412 12.8323 47.752 12.4876C47.092 12.1429 46.575 11.6663 46.201 11.0576C45.827 10.4416 45.64 9.74861 45.64 8.97861C45.64 8.20861 45.827 7.51928 46.201 6.91061C46.575 6.29461 47.092 5.81428 47.752 5.46961C48.412 5.12495 49.1564 4.95261 49.985 4.95261C50.8137 4.95261 51.558 5.12495 52.218 5.46961C52.878 5.81428 53.395 6.29461 53.769 6.91061C54.143 7.51928 54.33 8.20861 54.33 8.97861C54.33 9.74861 54.143 10.4416 53.769 11.0576C53.395 11.6663 52.878 12.1429 52.218 12.4876C51.558 12.8323 50.8137 13.0046 49.985 13.0046ZM49.985 10.9036C50.3077 10.9036 50.5974 10.8266 50.854 10.6726C51.118 10.5113 51.327 10.2876 51.481 10.0016C51.635 9.70828 51.712 9.36728 51.712 8.97861C51.712 8.58995 51.635 8.25261 51.481 7.96661C51.327 7.67328 51.118 7.44961 50.854 7.29561C50.5974 7.13428 50.3077 7.05361 49.985 7.05361C49.6624 7.05361 49.369 7.13428 49.105 7.29561C48.8484 7.44961 48.643 7.67328 48.489 7.96661C48.335 8.25261 48.258 8.58995 48.258 8.97861C48.258 9.36728 48.335 9.70828 48.489 10.0016C48.643 10.2876 48.8484 10.5113 49.105 10.6726C49.369 10.8266 49.6624 10.9036 49.985 10.9036ZM59.5153 10.0346V12.8286H56.9193V10.0016L54.0153 5.12861H56.7543L58.3273 7.79061L59.9113 5.12861H62.4193L59.5153 10.0346ZM65.4587 13.0046C64.8207 13.0046 64.1974 12.9349 63.5887 12.7956C62.9874 12.6489 62.4924 12.4546 62.1037 12.2126L62.9397 10.3206C63.3064 10.5333 63.717 10.7056 64.1717 10.8376C64.6264 10.9623 65.0627 11.0246 65.4807 11.0246C65.84 11.0246 66.0967 10.9916 66.2507 10.9256C66.4047 10.8523 66.4817 10.7459 66.4817 10.6066C66.4817 10.4453 66.379 10.3243 66.1737 10.2436C65.9757 10.1629 65.6457 10.0749 65.1837 9.97961C64.5897 9.85495 64.0947 9.72295 63.6987 9.58361C63.3027 9.43695 62.958 9.20228 62.6647 8.87961C62.3714 8.54961 62.2247 8.10595 62.2247 7.54861C62.2247 7.06461 62.3604 6.62461 62.6317 6.22861C62.903 5.83261 63.3064 5.52095 63.8417 5.29361C64.3844 5.06628 65.0407 4.95261 65.8107 4.95261C66.3387 4.95261 66.8557 5.01128 67.3617 5.12861C67.875 5.23861 68.326 5.40361 68.7147 5.62361L67.9337 7.50461C67.1784 7.12328 66.4634 6.93261 65.7887 6.93261C65.1214 6.93261 64.7877 7.09395 64.7877 7.41661C64.7877 7.57061 64.8867 7.68795 65.0847 7.76861C65.2827 7.84195 65.609 7.92261 66.0637 8.01061C66.6504 8.12061 67.1454 8.24895 67.5487 8.39561C67.952 8.53495 68.3004 8.76595 68.5937 9.08861C68.8944 9.41128 69.0447 9.85128 69.0447 10.4086C69.0447 10.8926 68.909 11.3326 68.6377 11.7286C68.3664 12.1173 67.9594 12.4289 67.4167 12.6636C66.8814 12.8909 66.2287 13.0046 65.4587 13.0046ZM49.2425 14.2716C48.9052 14.2716 48.6485 14.3633 48.4725 14.5466C48.3038 14.7299 48.2195 15.0013 48.2195 15.3606V16.0426H50.0015V16.7026H48.2415V21.8286H47.4605V16.7026H46.4265V16.0426H47.4605V15.3276C47.4605 14.7996 47.6108 14.3816 47.9115 14.0736C48.2195 13.7656 48.6522 13.6116 49.2095 13.6116C49.4295 13.6116 49.6422 13.6446 49.8475 13.7106C50.0528 13.7693 50.2252 13.8573 50.3645 13.9746L50.1005 14.5576C49.8732 14.3669 49.5872 14.2716 49.2425 14.2716ZM53.3244 21.8836C52.767 21.8836 52.2647 21.7589 51.8174 21.5096C51.37 21.2529 51.018 20.9009 50.7614 20.4536C50.5047 20.0063 50.3764 19.5003 50.3764 18.9356C50.3764 18.3709 50.5047 17.8649 50.7614 17.4176C51.018 16.9703 51.37 16.6219 51.8174 16.3726C52.2647 16.1233 52.767 15.9986 53.3244 15.9986C53.8817 15.9986 54.384 16.1233 54.8314 16.3726C55.2787 16.6219 55.627 16.9703 55.8764 17.4176C56.133 17.8649 56.2614 18.3709 56.2614 18.9356C56.2614 19.5003 56.133 20.0063 55.8764 20.4536C55.627 20.9009 55.2787 21.2529 54.8314 21.5096C54.384 21.7589 53.8817 21.8836 53.3244 21.8836ZM53.3244 21.1906C53.735 21.1906 54.1017 21.0989 54.4244 20.9156C54.7544 20.7249 55.011 20.4573 55.1944 20.1126C55.3777 19.7679 55.4694 19.3756 55.4694 18.9356C55.4694 18.4956 55.3777 18.1033 55.1944 17.7586C55.011 17.4139 54.7544 17.1499 54.4244 16.9666C54.1017 16.7759 53.735 16.6806 53.3244 16.6806C52.9137 16.6806 52.5434 16.7759 52.2134 16.9666C51.8907 17.1499 51.634 17.4139 51.4434 17.7586C51.26 18.1033 51.1684 18.4956 51.1684 18.9356C51.1684 19.3756 51.26 19.7679 51.4434 20.1126C51.634 20.4573 51.8907 20.7249 52.2134 20.9156C52.5434 21.0989 52.9137 21.1906 53.3244 21.1906ZM58.6038 17.1756C58.7872 16.7869 59.0585 16.4936 59.4178 16.2956C59.7845 16.0976 60.2355 15.9986 60.7708 15.9986V16.7576L60.5838 16.7466C59.9752 16.7466 59.4985 16.9336 59.1538 17.3076C58.8092 17.6816 58.6368 18.2059 58.6368 18.8806V21.8286H57.8558V16.0426H58.6038V17.1756ZM43.1856 28.2766L42.6026 28.9256V30.8286H40.0506V23.1286H42.6026V25.9226L45.1326 23.1286H47.9596L44.8796 26.5166L48.1136 30.8286H45.1106L43.1856 28.2766ZM48.4617 23.1286H51.0577V30.8286H48.4617V23.1286ZM52.3074 23.1286H56.1024C56.9604 23.1286 57.7158 23.2863 58.3684 23.6016C59.0284 23.9096 59.5381 24.3533 59.8974 24.9326C60.2641 25.5119 60.4474 26.1939 60.4474 26.9786C60.4474 27.7633 60.2641 28.4453 59.8974 29.0246C59.5381 29.6039 59.0284 30.0513 58.3684 30.3666C57.7158 30.6746 56.9604 30.8286 56.1024 30.8286H52.3074V23.1286ZM55.9924 28.8046C56.5498 28.8046 56.9934 28.6469 57.3234 28.3316C57.6608 28.0089 57.8294 27.5579 57.8294 26.9786C57.8294 26.3993 57.6608 25.9519 57.3234 25.6366C56.9934 25.3139 56.5498 25.1526 55.9924 25.1526H54.9034V28.8046H55.9924ZM64.2663 31.0046C63.6283 31.0046 63.005 30.9349 62.3963 30.7956C61.795 30.6489 61.3 30.4546 60.9113 30.2126L61.7473 28.3206C62.114 28.5333 62.5246 28.7056 62.9793 28.8376C63.434 28.9623 63.8703 29.0246 64.2883 29.0246C64.6476 29.0246 64.9043 28.9916 65.0583 28.9256C65.2123 28.8523 65.2893 28.7459 65.2893 28.6066C65.2893 28.4453 65.1866 28.3243 64.9813 28.2436C64.7833 28.1629 64.4533 28.0749 63.9913 27.9796C63.3973 27.8549 62.9023 27.7229 62.5063 27.5836C62.1103 27.4369 61.7656 27.2023 61.4723 26.8796C61.179 26.5496 61.0323 26.1059 61.0323 25.5486C61.0323 25.0646 61.168 24.6246 61.4393 24.2286C61.7106 23.8326 62.114 23.5209 62.6493 23.2936C63.192 23.0663 63.8483 22.9526 64.6183 22.9526C65.1463 22.9526 65.6633 23.0113 66.1693 23.1286C66.6826 23.2386 67.1336 23.4036 67.5223 23.6236L66.7413 25.5046C65.986 25.1233 65.271 24.9326 64.5963 24.9326C63.929 24.9326 63.5953 25.0939 63.5953 25.4166C63.5953 25.5706 63.6943 25.6879 63.8923 25.7686C64.0903 25.8419 64.4166 25.9226 64.8713 26.0106C65.458 26.1206 65.953 26.2489 66.3563 26.3956C66.7596 26.5349 67.108 26.7659 67.4013 27.0886C67.702 27.4113 67.8523 27.8513 67.8523 28.4086C67.8523 28.8926 67.7166 29.3326 67.4453 29.7286C67.174 30.1173 66.767 30.4289 66.2243 30.6636C65.689 30.8909 65.0363 31.0046 64.2663 31.0046Z" fill="#FFE6A6"/>
<defs>
<clipPath id="clip0">
<rect width="29.0566" height="28.9756" fill="white" transform="translate(3.52197 3.51172)"/>
</clipPath>
</defs>
</svg>
