<svg width="179" height="102" viewBox="0 0 179 102" fill="none" xmlns="http://www.w3.org/2000/svg">
<g filter="url(#filter0_d)">
<rect x="3" y="3" width="82" height="82" rx="11" fill="#FFE6A6"/>
</g>
<g clip-path="url(#clip0)">
<path d="M13.2717 47.5482C13.2717 47.5482 10.9797 29.0308 28.8402 26.1021C46.7007 23.1735 55.7145 37.9042 55.7145 37.9042H68.0125C72.6317 37.9007 76.3796 41.642 76.3831 46.2616V46.2682V54.1156H13.1714L13.2717 47.5482Z" fill="#E56353"/>
<path d="M27.9154 28.5815V38.8287H16.871C18.6908 33.836 22.8009 30.023 27.9154 28.5815Z" fill="#3A556A"/>
<path d="M52.4576 38.8287H30.4955V28.1059C31.045 28.039 31.6012 27.9919 32.1842 27.9651C45.7894 27.3755 52.4576 38.8287 52.4576 38.8287Z" fill="#3A556A"/>
<path d="M64.7288 42.1797C59.477 42.1828 54.8086 45.5259 53.1146 50.4966H34.8854C32.7052 44.0801 25.7356 40.6454 19.3191 42.8256C14.4566 44.4778 11.1377 48.9826 11 54.1156H77C76.8148 47.4712 71.3759 42.1806 64.7288 42.1797Z" fill="#FCD462"/>
<path d="M65.0303 62.2987C69.5497 62.2987 73.2134 58.635 73.2134 54.1156C73.2134 49.5962 69.5497 45.9325 65.0303 45.9325C60.5109 45.9325 56.8472 49.5962 56.8472 54.1156C56.8472 58.635 60.5109 62.2987 65.0303 62.2987Z" fill="#3A556A"/>
<path d="M65.0302 58.2776C67.3288 58.2776 69.1922 56.4142 69.1922 54.1156C69.1922 51.817 67.3288 49.9536 65.0302 49.9536C62.7317 49.9536 60.8683 51.817 60.8683 54.1156C60.8683 56.4142 62.7317 58.2776 65.0302 58.2776Z" fill="#E1E6E9"/>
<path d="M31.3601 54.1156C31.3601 58.6348 27.6966 62.2987 23.1769 62.2987C18.6573 62.2987 14.9943 58.6353 14.9943 54.1156C14.9943 49.5959 18.6577 45.9325 23.1774 45.9325C27.6966 45.9329 31.3601 49.5964 31.3601 54.1156Z" fill="#3A556A"/>
<path d="M23.1775 49.9541C20.8789 49.9541 19.0155 51.8175 19.0155 54.116C19.0155 56.4146 20.8789 58.278 23.1775 58.278C25.476 58.278 27.3394 56.4146 27.3394 54.116C27.3355 51.8188 25.4743 49.9576 23.1775 49.9541Z" fill="#E1E6E9"/>
</g>
<g filter="url(#filter1_d)">
<path d="M95.0443 20.075H89.9193V15.5H106.069V20.075H100.944V33H95.0443V20.075ZM116.533 33.4C114.649 33.4 112.958 33.0083 111.458 32.225C109.958 31.4417 108.783 30.3583 107.933 28.975C107.083 27.575 106.658 26 106.658 24.25C106.658 22.5 107.083 20.9333 107.933 19.55C108.783 18.15 109.958 17.0583 111.458 16.275C112.958 15.4917 114.649 15.1 116.533 15.1C118.416 15.1 120.108 15.4917 121.608 16.275C123.108 17.0583 124.283 18.15 125.133 19.55C125.983 20.9333 126.408 22.5 126.408 24.25C126.408 26 125.983 27.575 125.133 28.975C124.283 30.3583 123.108 31.4417 121.608 32.225C120.108 33.0083 118.416 33.4 116.533 33.4ZM116.533 28.625C117.266 28.625 117.924 28.45 118.508 28.1C119.108 27.7333 119.583 27.225 119.933 26.575C120.283 25.9083 120.458 25.1333 120.458 24.25C120.458 23.3667 120.283 22.6 119.933 21.95C119.583 21.2833 119.108 20.775 118.508 20.425C117.924 20.0583 117.266 19.875 116.533 19.875C115.799 19.875 115.133 20.0583 114.533 20.425C113.949 20.775 113.483 21.2833 113.133 21.95C112.783 22.6 112.608 23.3667 112.608 24.25C112.608 25.1333 112.783 25.9083 113.133 26.575C113.483 27.225 113.949 27.7333 114.533 28.1C115.133 28.45 115.799 28.625 116.533 28.625ZM138.192 26.65V33H132.292V26.575L125.692 15.5H131.917L135.492 21.55L139.092 15.5H144.792L138.192 26.65ZM151.7 33.4C150.25 33.4 148.833 33.2417 147.45 32.925C146.083 32.5917 144.958 32.15 144.075 31.6L145.975 27.3C146.808 27.7833 147.742 28.175 148.775 28.475C149.808 28.7583 150.8 28.9 151.75 28.9C152.567 28.9 153.15 28.825 153.5 28.675C153.85 28.5083 154.025 28.2667 154.025 27.95C154.025 27.5833 153.792 27.3083 153.325 27.125C152.875 26.9417 152.125 26.7417 151.075 26.525C149.725 26.2417 148.6 25.9417 147.7 25.625C146.8 25.2917 146.017 24.7583 145.35 24.025C144.683 23.275 144.35 22.2667 144.35 21C144.35 19.9 144.658 18.9 145.275 18C145.892 17.1 146.808 16.3917 148.025 15.875C149.258 15.3583 150.75 15.1 152.5 15.1C153.7 15.1 154.875 15.2333 156.025 15.5C157.192 15.75 158.217 16.125 159.1 16.625L157.325 20.9C155.608 20.0333 153.983 19.6 152.45 19.6C150.933 19.6 150.175 19.9667 150.175 20.7C150.175 21.05 150.4 21.3167 150.85 21.5C151.3 21.6667 152.042 21.85 153.075 22.05C154.408 22.3 155.533 22.5917 156.45 22.925C157.367 23.2417 158.158 23.7667 158.825 24.5C159.508 25.2333 159.85 26.2333 159.85 27.5C159.85 28.6 159.542 29.6 158.925 30.5C158.308 31.3833 157.383 32.0917 156.15 32.625C154.933 33.1417 153.45 33.4 151.7 33.4ZM114.845 35.825C114.078 35.825 113.495 36.0333 113.095 36.45C112.712 36.8667 112.52 37.4833 112.52 38.3V39.85H116.57V41.35H112.57V53H110.795V41.35H108.445V39.85H110.795V38.225C110.795 37.025 111.137 36.075 111.82 35.375C112.52 34.675 113.503 34.325 114.77 34.325C115.27 34.325 115.753 34.4 116.22 34.55C116.687 34.6833 117.078 34.8833 117.395 35.15L116.795 36.475C116.278 36.0417 115.628 35.825 114.845 35.825ZM124.122 53.125C122.855 53.125 121.714 52.8417 120.697 52.275C119.68 51.6917 118.88 50.8917 118.297 49.875C117.714 48.8583 117.422 47.7083 117.422 46.425C117.422 45.1417 117.714 43.9917 118.297 42.975C118.88 41.9583 119.68 41.1667 120.697 40.6C121.714 40.0333 122.855 39.75 124.122 39.75C125.389 39.75 126.53 40.0333 127.547 40.6C128.564 41.1667 129.355 41.9583 129.922 42.975C130.505 43.9917 130.797 45.1417 130.797 46.425C130.797 47.7083 130.505 48.8583 129.922 49.875C129.355 50.8917 128.564 51.6917 127.547 52.275C126.53 52.8417 125.389 53.125 124.122 53.125ZM124.122 51.55C125.055 51.55 125.889 51.3417 126.622 50.925C127.372 50.4917 127.955 49.8833 128.372 49.1C128.789 48.3167 128.997 47.425 128.997 46.425C128.997 45.425 128.789 44.5333 128.372 43.75C127.955 42.9667 127.372 42.3667 126.622 41.95C125.889 41.5167 125.055 41.3 124.122 41.3C123.189 41.3 122.347 41.5167 121.597 41.95C120.864 42.3667 120.28 42.9667 119.847 43.75C119.43 44.5333 119.222 45.425 119.222 46.425C119.222 47.425 119.43 48.3167 119.847 49.1C120.28 49.8833 120.864 50.4917 121.597 50.925C122.347 51.3417 123.189 51.55 124.122 51.55ZM136.121 42.425C136.537 41.5417 137.154 40.875 137.971 40.425C138.804 39.975 139.829 39.75 141.046 39.75V41.475L140.621 41.45C139.237 41.45 138.154 41.875 137.371 42.725C136.587 43.575 136.196 44.7667 136.196 46.3V53H134.421V39.85H136.121V42.425ZM103.633 63.85C104.666 64.2333 105.466 64.7917 106.033 65.525C106.6 66.2583 106.883 67.1417 106.883 68.175C106.883 69.7083 106.25 70.9 104.983 71.75C103.716 72.5833 101.883 73 99.483 73H89.633V55.5H98.983C101.316 55.5 103.075 55.9167 104.258 56.75C105.458 57.5833 106.058 58.6917 106.058 60.075C106.058 60.8917 105.85 61.625 105.433 62.275C105.033 62.925 104.433 63.45 103.633 63.85ZM95.433 59.625V62.225H98.183C99.4663 62.225 100.108 61.7917 100.108 60.925C100.108 60.0583 99.4663 59.625 98.183 59.625H95.433ZM98.983 68.875C100.283 68.875 100.933 68.4167 100.933 67.5C100.933 66.5833 100.283 66.125 98.983 66.125H95.433V68.875H98.983ZM118.144 73.4C116.261 73.4 114.569 73.0083 113.069 72.225C111.569 71.4417 110.394 70.3583 109.544 68.975C108.694 67.575 108.269 66 108.269 64.25C108.269 62.5 108.694 60.9333 109.544 59.55C110.394 58.15 111.569 57.0583 113.069 56.275C114.569 55.4917 116.261 55.1 118.144 55.1C120.027 55.1 121.719 55.4917 123.219 56.275C124.719 57.0583 125.894 58.15 126.744 59.55C127.594 60.9333 128.019 62.5 128.019 64.25C128.019 66 127.594 67.575 126.744 68.975C125.894 70.3583 124.719 71.4417 123.219 72.225C121.719 73.0083 120.027 73.4 118.144 73.4ZM118.144 68.625C118.877 68.625 119.536 68.45 120.119 68.1C120.719 67.7333 121.194 67.225 121.544 66.575C121.894 65.9083 122.069 65.1333 122.069 64.25C122.069 63.3667 121.894 62.6 121.544 61.95C121.194 61.2833 120.719 60.775 120.119 60.425C119.536 60.0583 118.877 59.875 118.144 59.875C117.411 59.875 116.744 60.0583 116.144 60.425C115.561 60.775 115.094 61.2833 114.744 61.95C114.394 62.6 114.219 63.3667 114.219 64.25C114.219 65.1333 114.394 65.9083 114.744 66.575C115.094 67.225 115.561 67.7333 116.144 68.1C116.744 68.45 117.411 68.625 118.144 68.625ZM139.804 66.65V73H133.904V66.575L127.304 55.5H133.529L137.104 61.55L140.704 55.5H146.404L139.804 66.65ZM153.311 73.4C151.861 73.4 150.445 73.2417 149.061 72.925C147.695 72.5917 146.57 72.15 145.686 71.6L147.586 67.3C148.42 67.7833 149.353 68.175 150.386 68.475C151.42 68.7583 152.411 68.9 153.361 68.9C154.178 68.9 154.761 68.825 155.111 68.675C155.461 68.5083 155.636 68.2667 155.636 67.95C155.636 67.5833 155.403 67.3083 154.936 67.125C154.486 66.9417 153.736 66.7417 152.686 66.525C151.336 66.2417 150.211 65.9417 149.311 65.625C148.411 65.2917 147.628 64.7583 146.961 64.025C146.295 63.275 145.961 62.2667 145.961 61C145.961 59.9 146.27 58.9 146.886 58C147.503 57.1 148.42 56.3917 149.636 55.875C150.87 55.3583 152.361 55.1 154.111 55.1C155.311 55.1 156.486 55.2333 157.636 55.5C158.803 55.75 159.828 56.125 160.711 56.625L158.936 60.9C157.22 60.0333 155.595 59.6 154.061 59.6C152.545 59.6 151.786 59.9667 151.786 60.7C151.786 61.05 152.011 61.3167 152.461 61.5C152.911 61.6667 153.653 61.85 154.686 62.05C156.02 62.3 157.145 62.5917 158.061 62.925C158.978 63.2417 159.77 63.7667 160.436 64.5C161.12 65.2333 161.461 66.2333 161.461 67.5C161.461 68.6 161.153 69.6 160.536 70.5C159.92 71.3833 158.995 72.0917 157.761 72.625C156.545 73.1417 155.061 73.4 153.311 73.4Z" fill="#FFE6A6"/>
</g>
<defs>
<filter id="filter0_d" x="0" y="0" width="102" height="102" filterUnits="userSpaceOnUse" color-interpolation-filters="sRGB">
<feFlood flood-opacity="0" result="BackgroundImageFix"/>
<feColorMatrix in="SourceAlpha" type="matrix" values="0 0 0 0 0 0 0 0 0 0 0 0 0 0 0 0 0 0 127 0"/>
<feOffset dx="7" dy="7"/>
<feGaussianBlur stdDeviation="5"/>
<feColorMatrix type="matrix" values="0 0 0 0 0 0 0 0 0 0 0 0 0 0 0 0 0 0 0.51 0"/>
<feBlend mode="normal" in2="BackgroundImageFix" result="effect1_dropShadow"/>
<feBlend mode="normal" in="SourceGraphic" in2="effect1_dropShadow" result="shape"/>
</filter>
<filter id="filter1_d" x="86.6331" y="12.1" width="91.8283" height="78.3" filterUnits="userSpaceOnUse" color-interpolation-filters="sRGB">
<feFlood flood-opacity="0" result="BackgroundImageFix"/>
<feColorMatrix in="SourceAlpha" type="matrix" values="0 0 0 0 0 0 0 0 0 0 0 0 0 0 0 0 0 0 127 0"/>
<feOffset dx="7" dy="7"/>
<feGaussianBlur stdDeviation="5"/>
<feColorMatrix type="matrix" values="0 0 0 0 0 0 0 0 0 0 0 0 0 0 0 0 0 0 0.51 0"/>
<feBlend mode="normal" in2="BackgroundImageFix" result="effect1_dropShadow"/>
<feBlend mode="normal" in="SourceGraphic" in2="effect1_dropShadow" result="shape"/>
</filter>
<clipPath id="clip0">
<rect width="66" height="66" fill="white" transform="translate(11 11)"/>
</clipPath>
</defs>
</svg>
