<svg width="118" height="64" viewBox="0 0 118 64" fill="none" xmlns="http://www.w3.org/2000/svg">
<rect width="60.8553" height="63.0818" rx="11" fill="#FFE6A6"/>
<g clip-path="url(#clip0)">
<path d="M7.62279 34.2705C7.62279 34.2705 5.92184 20.0252 19.1768 17.7722C32.4317 15.5193 39.1213 26.8515 39.1213 26.8515H48.2481C51.6761 26.8488 54.4576 29.7269 54.4602 33.2807V33.2858V39.3227H7.54834L7.62279 34.2705Z" fill="#E56353"/>
<path d="M18.4904 19.6796V27.5627H10.2939C11.6445 23.7218 14.6947 20.7885 18.4904 19.6796Z" fill="#3A556A"/>
<path d="M36.7042 27.5627H20.4053V19.3137C20.8131 19.2623 21.2259 19.2261 21.6585 19.2054C31.7555 18.7518 36.7042 27.5627 36.7042 27.5627Z" fill="#3A556A"/>
<path d="M45.8112 30.1406C41.9137 30.143 38.4491 32.7148 37.1919 36.5387H23.6633C22.0453 31.6025 16.8729 28.9603 12.1109 30.6375C8.50232 31.9085 6.03922 35.3739 5.93701 39.3227H54.9181C54.7807 34.2112 50.7443 30.1413 45.8112 30.1406Z" fill="#FCD462"/>
<path d="M46.0349 45.6179C49.389 45.6179 52.1079 42.7995 52.1079 39.3227C52.1079 35.846 49.389 33.0275 46.0349 33.0275C42.6809 33.0275 39.9619 35.846 39.9619 39.3227C39.9619 42.7995 42.6809 45.6179 46.0349 45.6179Z" fill="#3A556A"/>
<path d="M46.035 42.5245C47.7409 42.5245 49.1238 41.091 49.1238 39.3227C49.1238 37.5544 47.7409 36.121 46.035 36.121C44.3292 36.121 42.9463 37.5544 42.9463 39.3227C42.9463 41.091 44.3292 42.5245 46.035 42.5245Z" fill="#E1E6E9"/>
<path d="M21.0471 39.3227C21.0471 42.7993 18.3283 45.6179 14.974 45.6179C11.6198 45.6179 8.90137 42.7997 8.90137 39.3227C8.90137 35.8458 11.6201 33.0275 14.9744 33.0275C18.3283 33.0279 21.0471 35.8461 21.0471 39.3227Z" fill="#3A556A"/>
<path d="M14.9745 36.1213C13.2686 36.1213 11.8857 37.5548 11.8857 39.3231C11.8857 41.0913 13.2686 42.5248 14.9745 42.5248C16.6803 42.5248 18.0632 41.0913 18.0632 39.3231C18.0603 37.5558 16.679 36.124 14.9745 36.1213Z" fill="#E1E6E9"/>
</g>
<path d="M68.9726 12.1562H65.2826V8.86219H76.9106V12.1562H73.2206V21.4622H68.9726V12.1562ZM84.4441 21.7502C83.0881 21.7502 81.8701 21.4682 80.7901 20.9042C79.7101 20.3402 78.8641 19.5602 78.2521 18.5642C77.6401 17.5562 77.3341 16.4222 77.3341 15.1622C77.3341 13.9022 77.6401 12.7742 78.2521 11.7782C78.8641 10.7702 79.7101 9.98419 80.7901 9.42019C81.8701 8.85619 83.0881 8.57419 84.4441 8.57419C85.8001 8.57419 87.0181 8.85619 88.0981 9.42019C89.1781 9.98419 90.0241 10.7702 90.6361 11.7782C91.2481 12.7742 91.5541 13.9022 91.5541 15.1622C91.5541 16.4222 91.2481 17.5562 90.6361 18.5642C90.0241 19.5602 89.1781 20.3402 88.0981 20.9042C87.0181 21.4682 85.8001 21.7502 84.4441 21.7502ZM84.4441 18.3122C84.9721 18.3122 85.4461 18.1862 85.8661 17.9342C86.2981 17.6702 86.6401 17.3042 86.8921 16.8362C87.1441 16.3562 87.2701 15.7982 87.2701 15.1622C87.2701 14.5262 87.1441 13.9742 86.8921 13.5062C86.6401 13.0262 86.2981 12.6602 85.8661 12.4082C85.4461 12.1442 84.9721 12.0122 84.4441 12.0122C83.9161 12.0122 83.4361 12.1442 83.0041 12.4082C82.5841 12.6602 82.2481 13.0262 81.9961 13.5062C81.7441 13.9742 81.6181 14.5262 81.6181 15.1622C81.6181 15.7982 81.7441 16.3562 81.9961 16.8362C82.2481 17.3042 82.5841 17.6702 83.0041 17.9342C83.4361 18.1862 83.9161 18.3122 84.4441 18.3122ZM100.039 16.8902V21.4622H95.791V16.8362L91.039 8.86219H95.521L98.095 13.2182L100.687 8.86219H104.791L100.039 16.8902ZM109.765 21.7502C108.721 21.7502 107.701 21.6362 106.705 21.4082C105.721 21.1682 104.911 20.8502 104.275 20.4542L105.643 17.3582C106.243 17.7062 106.915 17.9882 107.659 18.2042C108.403 18.4082 109.117 18.5102 109.801 18.5102C110.389 18.5102 110.809 18.4562 111.061 18.3482C111.313 18.2282 111.439 18.0542 111.439 17.8262C111.439 17.5622 111.271 17.3642 110.935 17.2322C110.611 17.1002 110.071 16.9562 109.315 16.8002C108.343 16.5962 107.533 16.3802 106.885 16.1522C106.237 15.9122 105.673 15.5282 105.193 15.0002C104.713 14.4602 104.473 13.7342 104.473 12.8222C104.473 12.0302 104.695 11.3102 105.139 10.6622C105.583 10.0142 106.243 9.50419 107.119 9.13219C108.007 8.76019 109.081 8.57419 110.341 8.57419C111.205 8.57419 112.051 8.67019 112.879 8.86219C113.719 9.04219 114.457 9.31219 115.093 9.67219L113.815 12.7502C112.579 12.1262 111.409 11.8142 110.305 11.8142C109.213 11.8142 108.667 12.0782 108.667 12.6062C108.667 12.8582 108.829 13.0502 109.153 13.1822C109.477 13.3022 110.011 13.4342 110.755 13.5782C111.715 13.7582 112.525 13.9682 113.185 14.2082C113.845 14.4362 114.415 14.8142 114.895 15.3422C115.387 15.8702 115.633 16.5902 115.633 17.5022C115.633 18.2942 115.411 19.0142 114.967 19.6622C114.523 20.2982 113.857 20.8082 112.969 21.1922C112.093 21.5642 111.025 21.7502 109.765 21.7502ZM83.2291 23.0962C82.6771 23.0962 82.2571 23.2462 81.9691 23.5462C81.6931 23.8462 81.5551 24.2902 81.5551 24.8782V25.9942H84.4711V27.0742H81.5911V35.4622H80.3131V27.0742H78.6211V25.9942H80.3131V24.8242C80.3131 23.9602 80.5591 23.2762 81.0511 22.7722C81.5551 22.2682 82.2631 22.0162 83.1751 22.0162C83.5351 22.0162 83.8831 22.0702 84.2191 22.1782C84.5551 22.2742 84.8371 22.4182 85.0651 22.6102L84.6331 23.5642C84.2611 23.2522 83.7931 23.0962 83.2291 23.0962ZM89.9085 35.5522C88.9965 35.5522 88.1745 35.3482 87.4425 34.9402C86.7105 34.5202 86.1345 33.9442 85.7145 33.2122C85.2945 32.4802 85.0845 31.6522 85.0845 30.7282C85.0845 29.8042 85.2945 28.9762 85.7145 28.2442C86.1345 27.5122 86.7105 26.9422 87.4425 26.5342C88.1745 26.1262 88.9965 25.9222 89.9085 25.9222C90.8205 25.9222 91.6425 26.1262 92.3745 26.5342C93.1065 26.9422 93.6765 27.5122 94.0845 28.2442C94.5045 28.9762 94.7145 29.8042 94.7145 30.7282C94.7145 31.6522 94.5045 32.4802 94.0845 33.2122C93.6765 33.9442 93.1065 34.5202 92.3745 34.9402C91.6425 35.3482 90.8205 35.5522 89.9085 35.5522ZM89.9085 34.4182C90.5805 34.4182 91.1805 34.2682 91.7085 33.9682C92.2485 33.6562 92.6685 33.2182 92.9685 32.6542C93.2685 32.0902 93.4185 31.4482 93.4185 30.7282C93.4185 30.0082 93.2685 29.3662 92.9685 28.8022C92.6685 28.2382 92.2485 27.8062 91.7085 27.5062C91.1805 27.1942 90.5805 27.0382 89.9085 27.0382C89.2365 27.0382 88.6305 27.1942 88.0905 27.5062C87.5625 27.8062 87.1425 28.2382 86.8305 28.8022C86.5305 29.3662 86.3805 30.0082 86.3805 30.7282C86.3805 31.4482 86.5305 32.0902 86.8305 32.6542C87.1425 33.2182 87.5625 33.6562 88.0905 33.9682C88.6305 34.2682 89.2365 34.4182 89.9085 34.4182ZM98.5476 27.8482C98.8476 27.2122 99.2916 26.7322 99.8796 26.4082C100.48 26.0842 101.218 25.9222 102.094 25.9222V27.1642L101.788 27.1462C100.792 27.1462 100.012 27.4522 99.4476 28.0642C98.8836 28.6762 98.6016 29.5342 98.6016 30.6382V35.4622H97.3236V25.9942H98.5476V27.8482ZM73.3178 45.2862L72.3638 46.3482V49.4622H68.1878V36.8622H72.3638V41.4342L76.5038 36.8622H81.1298L76.0898 42.4062L81.3818 49.4622H76.4678L73.3178 45.2862ZM81.9514 36.8622H86.1994V49.4622H81.9514V36.8622ZM88.2444 36.8622H94.4544C95.8584 36.8622 97.0944 37.1202 98.1624 37.6362C99.2424 38.1402 100.076 38.8662 100.664 39.8142C101.264 40.7622 101.564 41.8782 101.564 43.1622C101.564 44.4462 101.264 45.5622 100.664 46.5102C100.076 47.4582 99.2424 48.1902 98.1624 48.7062C97.0944 49.2102 95.8584 49.4622 94.4544 49.4622H88.2444V36.8622ZM94.2744 46.1502C95.1864 46.1502 95.9124 45.8922 96.4524 45.3762C97.0044 44.8482 97.2804 44.1102 97.2804 43.1622C97.2804 42.2142 97.0044 41.4822 96.4524 40.9662C95.9124 40.4382 95.1864 40.1742 94.2744 40.1742H92.4924V46.1502H94.2744ZM107.813 49.7502C106.769 49.7502 105.749 49.6362 104.753 49.4082C103.769 49.1682 102.959 48.8502 102.323 48.4542L103.691 45.3582C104.291 45.7062 104.963 45.9882 105.707 46.2042C106.451 46.4082 107.165 46.5102 107.849 46.5102C108.437 46.5102 108.857 46.4562 109.109 46.3482C109.361 46.2282 109.487 46.0542 109.487 45.8262C109.487 45.5622 109.319 45.3642 108.983 45.2322C108.659 45.1002 108.119 44.9562 107.363 44.8002C106.391 44.5962 105.581 44.3802 104.933 44.1522C104.285 43.9122 103.721 43.5282 103.241 43.0002C102.761 42.4602 102.521 41.7342 102.521 40.8222C102.521 40.0302 102.743 39.3102 103.187 38.6622C103.631 38.0142 104.291 37.5042 105.167 37.1322C106.055 36.7602 107.129 36.5742 108.389 36.5742C109.253 36.5742 110.099 36.6702 110.927 36.8622C111.767 37.0422 112.505 37.3122 113.141 37.6722L111.863 40.7502C110.627 40.1262 109.457 39.8142 108.353 39.8142C107.261 39.8142 106.715 40.0782 106.715 40.6062C106.715 40.8582 106.877 41.0502 107.201 41.1822C107.525 41.3022 108.059 41.4342 108.803 41.5782C109.763 41.7582 110.573 41.9682 111.233 42.2082C111.893 42.4362 112.463 42.8142 112.943 43.3422C113.435 43.8702 113.681 44.5902 113.681 45.5022C113.681 46.2942 113.459 47.0142 113.015 47.6622C112.571 48.2982 111.905 48.8082 111.017 49.1922C110.141 49.5642 109.073 49.7502 107.813 49.7502Z" fill="#FFE6A6"/>
<defs>
<clipPath id="clip0">
<rect width="48.9811" height="50.7731" fill="white" transform="translate(5.93701 6.15433)"/>
</clipPath>
</defs>
</svg>
