<svg width="16" height="16" viewBox="0 0 16 16" fill="none" xmlns="http://www.w3.org/2000/svg">
<g clip-path="url(#clip0)">
<path d="M15.8045 14.862L11.2545 10.312C12.1359 9.22336 12.6665 7.84003 12.6665 6.33339C12.6665 2.84142 9.82522 0.000106812 6.33325 0.000106812C2.84128 0.000106812 0 2.84139 0 6.33336C0 9.82533 2.84132 12.6666 6.33328 12.6666C7.83992 12.6666 9.22325 12.136 10.3119 11.2547L14.8619 15.8046C14.9919 15.9346 15.1625 16 15.3332 16C15.5039 16 15.6745 15.9346 15.8045 15.8046C16.0652 15.544 16.0652 15.1226 15.8045 14.862ZM6.33328 11.3333C3.57597 11.3333 1.33333 9.09068 1.33333 6.33336C1.33333 3.57604 3.57597 1.33341 6.33328 1.33341C9.0906 1.33341 11.3332 3.57604 11.3332 6.33336C11.3332 9.09068 9.09057 11.3333 6.33328 11.3333Z" fill="black"/>
</g>
<defs>
<clipPath id="clip0">
<rect width="16" height="16" fill="white"/>
</clipPath>
</defs>
</svg>
