<svg width="342" height="115" viewBox="0 0 342 115" fill="none" xmlns="http://www.w3.org/2000/svg">
<g filter="url(#filter0_d)">
<rect x="19" y="15" width="294" height="67" rx="33.5" fill="url(#paint0_linear)"/>
</g>
<path d="M78.936 54.384C77.16 54.384 75.56 54.016 74.136 53.28C72.712 52.528 71.592 51.488 70.776 50.16C69.976 48.816 69.576 47.296 69.576 45.6C69.576 43.904 69.976 42.392 70.776 41.064C71.592 39.72 72.712 38.68 74.136 37.944C75.56 37.192 77.16 36.816 78.936 36.816C80.568 36.816 82.024 37.104 83.304 37.68C84.584 38.256 85.64 39.088 86.472 40.176L82.896 43.368C81.856 42.056 80.632 41.4 79.224 41.4C78.04 41.4 77.088 41.784 76.368 42.552C75.648 43.304 75.288 44.32 75.288 45.6C75.288 46.88 75.648 47.904 76.368 48.672C77.088 49.424 78.04 49.8 79.224 49.8C80.632 49.8 81.856 49.144 82.896 47.832L86.472 51.024C85.64 52.112 84.584 52.944 83.304 53.52C82.024 54.096 80.568 54.384 78.936 54.384ZM104.006 49.752V56.592H98.9901V54H91.7421V56.592H86.7261V49.752H87.1101C87.8781 49.752 88.4141 49.392 88.7181 48.672C89.0221 47.936 89.1981 46.88 89.2461 45.504L89.4141 40.872H102.254V49.752H104.006ZM94.1181 45.912C94.0861 46.92 94.0141 47.72 93.9021 48.312C93.8061 48.888 93.6061 49.368 93.3021 49.752H96.8541V45.096H94.1421L94.1181 45.912ZM119.392 47.424C119.392 47.504 119.368 47.928 119.32 48.696H110.2C110.392 49.192 110.712 49.576 111.16 49.848C111.608 50.104 112.168 50.232 112.84 50.232C113.416 50.232 113.896 50.16 114.28 50.016C114.68 49.872 115.112 49.624 115.576 49.272L118.408 52.128C117.128 53.536 115.216 54.24 112.672 54.24C111.088 54.24 109.696 53.952 108.496 53.376C107.296 52.784 106.368 51.968 105.712 50.928C105.056 49.888 104.728 48.72 104.728 47.424C104.728 46.112 105.048 44.944 105.688 43.92C106.344 42.88 107.232 42.072 108.352 41.496C109.488 40.92 110.76 40.632 112.168 40.632C113.496 40.632 114.704 40.896 115.792 41.424C116.896 41.952 117.768 42.728 118.408 43.752C119.064 44.776 119.392 46 119.392 47.424ZM112.216 44.328C111.656 44.328 111.192 44.48 110.824 44.784C110.456 45.088 110.216 45.52 110.104 46.08H114.328C114.216 45.536 113.976 45.112 113.608 44.808C113.24 44.488 112.776 44.328 112.216 44.328ZM135.502 40.872V54H130.078V45.096H127.606L127.534 46.8C127.47 48.496 127.294 49.888 127.006 50.976C126.718 52.064 126.238 52.904 125.566 53.496C124.91 54.072 124.006 54.36 122.854 54.36C122.134 54.36 121.294 54.24 120.334 54L120.55 49.608C120.806 49.64 120.99 49.656 121.102 49.656C121.758 49.656 122.19 49.424 122.398 48.96C122.606 48.48 122.734 47.688 122.782 46.584L122.974 40.872H135.502ZM143.645 40.632C145.949 40.632 147.709 41.152 148.925 42.192C150.141 43.216 150.749 44.8 150.749 46.944V54H145.709V52.272C145.085 53.584 143.845 54.24 141.989 54.24C140.949 54.24 140.061 54.064 139.325 53.712C138.605 53.344 138.053 52.856 137.669 52.248C137.301 51.624 137.117 50.928 137.117 50.16C137.117 48.864 137.613 47.88 138.605 47.208C139.597 46.536 141.101 46.2 143.117 46.2H145.301C145.125 45.176 144.301 44.664 142.829 44.664C142.237 44.664 141.637 44.76 141.029 44.952C140.421 45.128 139.901 45.376 139.469 45.696L137.741 42.12C138.493 41.656 139.397 41.296 140.453 41.04C141.525 40.768 142.589 40.632 143.645 40.632ZM143.621 50.976C144.005 50.976 144.349 50.872 144.653 50.664C144.957 50.456 145.181 50.144 145.325 49.728V48.816H143.981C142.877 48.816 142.325 49.184 142.325 49.92C142.325 50.224 142.437 50.48 142.661 50.688C142.901 50.88 143.221 50.976 143.621 50.976ZM165.392 45.096H161.384V54H155.984V45.096H151.976V40.872H165.392V45.096ZM175.256 44.832C177.016 44.832 178.368 45.216 179.312 45.984C180.256 46.752 180.728 47.84 180.728 49.248C180.728 50.72 180.176 51.88 179.072 52.728C177.984 53.576 176.488 54 174.584 54H166.952V40.872H172.352V44.832H175.256ZM174.032 50.352C174.816 50.352 175.208 49.952 175.208 49.152C175.208 48.384 174.816 48 174.032 48H172.352V50.352H174.032ZM199.507 47.184C200.211 47.44 200.755 47.816 201.139 48.312C201.539 48.792 201.739 49.36 201.739 50.016C201.739 50.928 201.419 51.712 200.779 52.368C200.139 53.008 199.275 53.496 198.187 53.832C197.099 54.152 195.891 54.312 194.563 54.312C192.307 54.312 190.259 53.976 188.419 53.304L189.787 49.728C191.147 50.224 192.691 50.472 194.419 50.472C194.995 50.472 195.451 50.4 195.787 50.256C196.123 50.112 196.291 49.888 196.291 49.584C196.291 49.328 196.211 49.152 196.051 49.056C195.907 48.944 195.651 48.888 195.283 48.888H192.283V45.864H194.779C195.179 45.864 195.467 45.808 195.643 45.696C195.835 45.584 195.931 45.4 195.931 45.144C195.931 44.888 195.803 44.696 195.547 44.568C195.291 44.44 194.851 44.376 194.227 44.376C193.027 44.376 191.627 44.648 190.027 45.192L188.803 41.76C190.835 40.976 192.779 40.584 194.635 40.584C196.603 40.584 198.219 40.912 199.483 41.568C200.747 42.208 201.379 43.144 201.379 44.376C201.379 44.952 201.211 45.488 200.875 45.984C200.539 46.48 200.083 46.88 199.507 47.184ZM209.059 40.632C211.363 40.632 213.123 41.152 214.339 42.192C215.555 43.216 216.163 44.8 216.163 46.944V54H211.123V52.272C210.499 53.584 209.259 54.24 207.403 54.24C206.363 54.24 205.475 54.064 204.739 53.712C204.019 53.344 203.467 52.856 203.083 52.248C202.715 51.624 202.531 50.928 202.531 50.16C202.531 48.864 203.027 47.88 204.019 47.208C205.011 46.536 206.515 46.2 208.531 46.2H210.715C210.539 45.176 209.715 44.664 208.243 44.664C207.651 44.664 207.051 44.76 206.443 44.952C205.835 45.128 205.315 45.376 204.883 45.696L203.155 42.12C203.907 41.656 204.811 41.296 205.867 41.04C206.939 40.768 208.003 40.632 209.059 40.632ZM209.035 50.976C209.419 50.976 209.763 50.872 210.067 50.664C210.371 50.456 210.595 50.144 210.739 49.728V48.816H209.395C208.291 48.816 207.739 49.184 207.739 49.92C207.739 50.224 207.851 50.48 208.075 50.688C208.315 50.88 208.635 50.976 209.035 50.976ZM224.83 49.632H223.798V54H218.374V40.872H223.798V45.48H224.974L227.854 40.872H233.566L229.342 47.16L233.83 54H227.446L224.83 49.632ZM240.395 40.632C242.699 40.632 244.459 41.152 245.675 42.192C246.891 43.216 247.499 44.8 247.499 46.944V54H242.459V52.272C241.835 53.584 240.595 54.24 238.739 54.24C237.699 54.24 236.811 54.064 236.075 53.712C235.355 53.344 234.803 52.856 234.419 52.248C234.051 51.624 233.867 50.928 233.867 50.16C233.867 48.864 234.363 47.88 235.355 47.208C236.347 46.536 237.851 46.2 239.867 46.2H242.051C241.875 45.176 241.051 44.664 239.579 44.664C238.987 44.664 238.387 44.76 237.779 44.952C237.171 45.128 236.651 45.376 236.219 45.696L234.491 42.12C235.243 41.656 236.147 41.296 237.203 41.04C238.275 40.768 239.339 40.632 240.395 40.632ZM240.371 50.976C240.755 50.976 241.099 50.872 241.403 50.664C241.707 50.456 241.931 50.144 242.075 49.728V48.816H240.731C239.627 48.816 239.075 49.184 239.075 49.92C239.075 50.224 239.187 50.48 239.411 50.688C239.651 50.88 239.971 50.976 240.371 50.976ZM259.742 47.184C260.446 47.44 260.99 47.816 261.374 48.312C261.774 48.792 261.974 49.36 261.974 50.016C261.974 50.928 261.654 51.712 261.014 52.368C260.374 53.008 259.51 53.496 258.422 53.832C257.334 54.152 256.126 54.312 254.798 54.312C252.542 54.312 250.494 53.976 248.654 53.304L250.021 49.728C251.382 50.224 252.926 50.472 254.654 50.472C255.23 50.472 255.686 50.4 256.022 50.256C256.358 50.112 256.526 49.888 256.526 49.584C256.526 49.328 256.446 49.152 256.286 49.056C256.142 48.944 255.886 48.888 255.518 48.888H252.518V45.864H255.014C255.414 45.864 255.702 45.808 255.878 45.696C256.07 45.584 256.166 45.4 256.166 45.144C256.166 44.888 256.038 44.696 255.782 44.568C255.526 44.44 255.086 44.376 254.462 44.376C253.262 44.376 251.862 44.648 250.262 45.192L249.038 41.76C251.07 40.976 253.014 40.584 254.87 40.584C256.838 40.584 258.454 40.912 259.718 41.568C260.982 42.208 261.614 43.144 261.614 44.376C261.614 44.952 261.446 45.488 261.109 45.984C260.774 46.48 260.318 46.88 259.742 47.184Z" fill="black"/>
<defs>
<filter id="filter0_d" x="0" y="0" width="342" height="115" filterUnits="userSpaceOnUse" color-interpolation-filters="sRGB">
<feFlood flood-opacity="0" result="BackgroundImageFix"/>
<feColorMatrix in="SourceAlpha" type="matrix" values="0 0 0 0 0 0 0 0 0 0 0 0 0 0 0 0 0 0 127 0"/>
<feOffset dx="5" dy="9"/>
<feGaussianBlur stdDeviation="12"/>
<feColorMatrix type="matrix" values="0 0 0 0 0.94902 0 0 0 0 0.686274 0 0 0 0 0.00392157 0 0 0 0.53 0"/>
<feBlend mode="normal" in2="BackgroundImageFix" result="effect1_dropShadow"/>
<feBlend mode="normal" in="SourceGraphic" in2="effect1_dropShadow" result="shape"/>
</filter>
<linearGradient id="paint0_linear" x1="137.214" y1="15" x2="197.235" y2="73.6858" gradientUnits="userSpaceOnUse">
<stop stop-color="#FCB600"/>
<stop offset="1" stop-color="#E2A402"/>
</linearGradient>
</defs>
</svg>
