<svg width="58" height="62" viewBox="0 0 58 62" fill="none" xmlns="http://www.w3.org/2000/svg">
<g clip-path="url(#clip0)" filter="url(#filter0_d)">
<path d="M7.50845 29.8462C7.05919 29.8462 6.69495 30.2104 6.69495 30.6597V33.9137C6.69495 34.363 7.05919 34.7272 7.50845 34.7272C7.95771 34.7272 8.32196 34.363 8.32196 33.9137V30.6597C8.32196 30.2104 7.95771 29.8462 7.50845 29.8462Z" fill="black"/>
<path d="M10.7625 31.4731C10.3132 31.4731 9.94897 31.8374 9.94897 32.2867V35.5407C9.94897 35.99 10.3132 36.3542 10.7625 36.3542C11.2117 36.3542 11.576 35.99 11.576 35.5407V32.2867C11.576 31.8374 11.2117 31.4731 10.7625 31.4731Z" fill="black"/>
<path d="M40.4345 35.8391C40.0553 35.5981 39.5525 35.7103 39.3115 36.0895C39.0803 36.4534 39.1731 36.9346 39.5233 37.1863C41.7595 38.6919 42.3516 41.7252 40.8461 43.9612C39.3405 46.1973 36.3072 46.7896 34.0712 45.284C31.8351 43.7784 31.2428 40.7451 32.7484 38.5091C33.655 37.1626 35.1717 36.3549 36.7948 36.3541C37.2441 36.3541 37.6083 35.9898 37.6083 35.5406C37.6083 35.0913 37.2441 34.7271 36.7948 34.7271C33.2005 34.7278 30.2873 37.6421 30.288 41.2363C30.2887 44.8306 33.203 47.7439 36.7973 47.7432C40.3915 47.7425 43.3048 44.8282 43.3041 41.2339C43.3037 39.0705 42.2282 37.0486 40.4345 35.8391Z" fill="black"/>
<path d="M46.1736 38.5333C45.3855 35.8028 43.446 33.5517 40.8623 32.3681V14.3896C40.8624 14.1019 40.7105 13.8356 40.4629 13.6891L22.5657 3.1135C22.3103 2.96249 21.9929 2.96249 21.7376 3.1135L3.84035 13.6891C3.82327 13.6989 3.81106 13.7135 3.79479 13.7249C3.77852 13.7363 3.76307 13.7493 3.7468 13.7623C3.67612 13.818 3.61542 13.8851 3.56701 13.9608C3.56701 13.9665 3.55725 13.9698 3.554 13.9755V13.9812C3.50813 14.0638 3.47702 14.1538 3.46207 14.2472C3.46207 14.2716 3.45475 14.2944 3.45231 14.3188C3.44987 14.3432 3.44092 14.3651 3.44092 14.3896V35.5408C3.44082 35.8285 3.59274 36.0948 3.84035 36.2412L21.7376 46.8169C21.759 46.8272 21.781 46.8365 21.8034 46.8445C21.8256 46.8556 21.8485 46.8654 21.8718 46.8738C22.0509 46.9486 22.2524 46.9486 22.4315 46.8738C22.4551 46.8654 22.4782 46.8556 22.5006 46.8445C22.5218 46.8347 22.5446 46.8291 22.5657 46.8169L27.4232 43.946C28.9179 49.1238 34.3269 52.1095 39.5048 50.6148C44.6826 49.1202 47.6684 43.7111 46.1736 38.5333ZM22.1516 4.75842L26.3819 7.25833L20.1097 10.9647C19.7227 11.1934 19.5943 11.6926 19.823 12.0796C20.0517 12.4666 20.5508 12.5951 20.9379 12.3664L27.9821 8.20688L32.2123 10.7068L15.9145 20.3347L11.6842 17.8348L18.499 13.8079C18.886 13.5792 19.0144 13.08 18.7857 12.693C18.557 12.306 18.0578 12.1775 17.6708 12.4062L10.0848 16.8895L5.85379 14.3896L22.1516 4.75842ZM15.1009 21.7445V27.1763L10.8984 24.6927V19.2608L15.1009 21.7445ZM27.3541 38.7206C27.1377 39.5412 27.0296 40.3867 27.0327 41.2354C27.0329 41.5758 27.0508 41.9161 27.0864 42.2547L22.9651 44.6912V42.0489C22.9651 41.5996 22.6009 41.2354 22.1516 41.2354C21.7024 41.2354 21.3381 41.5996 21.3381 42.0489V44.6912L5.06794 35.0771V15.8156L9.27134 18.2993V25.1564C9.27103 25.4443 9.42285 25.7111 9.67077 25.8576L15.5004 29.3028C15.6259 29.3766 15.7688 29.4157 15.9145 29.4159C16.3637 29.4159 16.728 29.0516 16.728 28.6024V22.7052L21.3381 25.4297V38.7948C21.3381 39.2441 21.7024 39.6083 22.1516 39.6083C22.6009 39.6083 22.9651 39.2441 22.9651 38.7948V25.4297L37.7092 16.717C38.096 16.4883 38.2242 15.9893 37.9955 15.6025C37.7668 15.2157 37.2679 15.0874 36.881 15.3161L22.1516 24.0207L17.5146 21.28L33.8125 11.6488L39.2353 14.8533V31.7987C34.043 30.4292 28.7236 33.5282 27.3541 38.7206ZM36.7948 49.3705C32.3019 49.3705 28.6597 45.7283 28.6597 41.2354C28.6597 36.7425 32.3019 33.1003 36.7948 33.1003C41.2877 33.1003 44.9299 36.7425 44.9299 41.2354C44.925 45.7262 41.2857 49.3655 36.7948 49.3705Z" fill="black"/>
<path d="M39.7905 39.0329C39.4753 38.7283 38.9754 38.7283 38.6601 39.0329L35.5745 42.1185L34.9294 41.4734C34.6062 41.1612 34.0913 41.1702 33.7791 41.4933C33.4745 41.8086 33.4745 42.3085 33.7791 42.6237L34.9993 43.844C35.317 44.1615 35.832 44.1615 36.1496 43.844L39.8104 40.1832C40.1226 39.86 40.1137 39.3449 39.7905 39.0329Z" fill="black"/>
</g>
<defs>
<filter id="filter0_d" x="-2" y="0" width="62" height="62" filterUnits="userSpaceOnUse" color-interpolation-filters="sRGB">
<feFlood flood-opacity="0" result="BackgroundImageFix"/>
<feColorMatrix in="SourceAlpha" type="matrix" values="0 0 0 0 0 0 0 0 0 0 0 0 0 0 0 0 0 0 127 0"/>
<feOffset dx="4" dy="4"/>
<feGaussianBlur stdDeviation="3.5"/>
<feColorMatrix type="matrix" values="0 0 0 0 0 0 0 0 0 0 0 0 0 0 0 0 0 0 0.25 0"/>
<feBlend mode="normal" in2="BackgroundImageFix" result="effect1_dropShadow"/>
<feBlend mode="normal" in="SourceGraphic" in2="effect1_dropShadow" result="shape"/>
</filter>
<clipPath id="clip0">
<rect width="48" height="48" fill="white" transform="translate(1 3)"/>
</clipPath>
</defs>
</svg>
