<svg width="62" height="58" viewBox="0 0 62 58" fill="none" xmlns="http://www.w3.org/2000/svg">
<g clip-path="url(#clip0)" filter="url(#filter0_d)">
<path d="M50.9999 9.23166C50.9999 9.22641 50.9992 9.22116 50.999 9.21582C50.9984 9.19491 50.9972 9.17429 50.9948 9.15385C50.9939 9.14635 50.9924 9.13885 50.9913 9.13135C50.9885 9.11251 50.985 9.09394 50.9807 9.07576C50.979 9.06854 50.9772 9.06141 50.9752 9.05419C50.9698 9.03441 50.9636 9.01501 50.9564 8.99588C50.9551 8.99223 50.9543 8.98848 50.9529 8.98491L49.0455 4.10223C48.8533 3.61024 48.3876 3.29224 47.8593 3.29224H44.3865C44.0079 3.29224 43.7011 3.59908 43.7011 3.97764C43.7011 4.3562 44.0079 4.66305 44.3865 4.66305H47.793L49.3109 8.54888H34.9602L34.061 4.66305H39.361C39.7396 4.66305 40.0464 4.3562 40.0464 3.97764C40.0464 3.59908 39.7396 3.29224 39.361 3.29224H33.1989H26.2926H11.6321C11.1038 3.29224 10.6382 3.61024 10.4459 4.10242L8.53859 8.98491C8.53718 8.98857 8.53643 8.99232 8.53503 8.99588C8.5279 9.01491 8.52172 9.03432 8.51628 9.05419C8.51431 9.06141 8.51243 9.06854 8.51075 9.07576C8.50643 9.09404 8.50297 9.1126 8.50015 9.13135C8.49903 9.13885 8.49762 9.14635 8.49668 9.15385C8.49434 9.17429 8.49303 9.19491 8.49247 9.21582C8.49237 9.22107 8.49172 9.22632 8.49162 9.23166C8.49162 9.23251 8.49153 9.23335 8.49153 9.23419V19.3039C8.49153 19.6824 8.79837 19.9893 9.17693 19.9893C9.5555 19.9893 9.86234 19.6824 9.86234 19.3039V9.91969H24.3909V20.3379C24.3909 20.7454 24.6309 21.1166 25.0025 21.2838C25.1385 21.345 25.2833 21.3749 25.4272 21.3749C25.6762 21.3749 25.9225 21.2855 26.1156 21.1143L29.7457 17.8983L33.3758 21.1142C33.6806 21.3845 34.1177 21.4509 34.4892 21.2838C34.8606 21.1165 35.1006 20.7454 35.1006 20.3379V9.91969H49.6291V40.6624C49.6291 41.1542 49.2289 41.5544 48.7371 41.5544H36.1697C36.1697 41.5467 36.1687 41.5389 36.1686 41.5311C36.1679 41.4696 36.1656 41.4082 36.1604 41.3473C37.3404 41.6601 38.6012 41.0536 39.0741 39.8939C39.3228 39.2839 39.3192 38.6136 39.0637 38.0065C39.0396 37.9493 39.0131 37.8938 38.9852 37.8391C38.98 37.8291 38.975 37.819 38.9699 37.809C38.9424 37.7569 38.9132 37.706 38.8823 37.6564C38.8763 37.6468 38.8701 37.6374 38.864 37.6278C38.8314 37.5769 38.7976 37.527 38.7615 37.4789C38.7608 37.4779 38.7601 37.4771 38.7594 37.4762C38.7236 37.4287 38.6857 37.383 38.6466 37.3382C38.6395 37.3301 38.6325 37.3218 38.6252 37.3137C38.5865 37.2705 38.5463 37.2288 38.5047 37.1886C38.4965 37.1807 38.4883 37.1731 38.48 37.1655C38.4364 37.1245 38.3918 37.0846 38.3453 37.047C38.3437 37.0458 38.3421 37.0446 38.3405 37.0434C38.2948 37.0065 38.2473 36.9717 38.1988 36.9381C38.1901 36.932 38.1814 36.9258 38.1725 36.9198C38.1241 36.8872 38.0744 36.8564 38.0234 36.827C38.0192 36.8246 38.0153 36.8218 38.011 36.8193C38.3007 36.5686 38.5293 36.2514 38.6782 35.8863C38.9269 35.2763 38.9233 34.606 38.6678 33.9988C38.4443 33.4675 38.0514 33.0402 37.5482 32.7751C37.4763 32.7372 37.4021 32.7026 37.3259 32.6716L26.6584 28.3218L31.6239 26.7849C32.8053 26.4192 33.4706 25.1592 33.107 23.9764C32.9714 23.5348 32.7024 23.1624 32.355 22.8903C31.838 22.4852 31.1469 22.3023 30.4616 22.4462C30.4583 22.4469 30.4551 22.4475 30.4519 22.4483C30.4139 22.4569 26.6073 23.3128 22.6316 24.088C22.4553 24.1224 22.2834 24.1556 22.114 24.1882C21.9785 24.2143 21.8448 24.24 21.7136 24.2649C21.6759 24.2721 21.6382 24.2793 21.6008 24.2864C21.3692 24.3304 21.1448 24.3724 20.9268 24.4129C20.839 24.4293 20.752 24.4454 20.6664 24.4611C15.6736 25.3809 14.271 25.3974 13.8818 25.3447C13.8803 25.3445 13.879 25.3444 13.8775 25.3441C13.8715 25.3432 13.8657 25.3424 13.8603 25.3415C13.8564 25.3409 13.8527 25.3402 13.849 25.3397C13.8464 25.3392 13.8436 25.3387 13.8411 25.3384C13.8168 25.3339 13.7979 25.3294 13.7832 25.3249L13.6709 25.2792L13.8109 24.936C13.9485 24.5985 13.9465 24.2276 13.8052 23.8917C13.7698 23.8077 13.7268 23.7284 13.6769 23.6545C13.5273 23.433 13.3157 23.2605 13.0626 23.1573L9.38121 21.6562C9.04381 21.5185 8.67284 21.5207 8.33693 21.662C8.00094 21.8032 7.74022 22.067 7.60259 22.4044L3.10101 33.4446C2.81695 34.1413 3.15266 34.9391 3.84932 35.2232L7.53078 36.7244C7.69887 36.7929 7.87278 36.8253 8.04406 36.8253C8.58247 36.8253 9.09378 36.5045 9.30931 35.976L9.34315 35.8931L10.192 36.2391C10.1924 36.2393 10.1929 36.2396 10.1935 36.2398C11.0053 36.5708 11.7534 37.0431 12.4008 37.6292C12.5186 37.7358 12.6329 37.8462 12.7438 37.9601C12.8547 38.074 12.962 38.1915 13.0656 38.3125C13.1173 38.3729 13.1682 38.4344 13.218 38.4965C14.1614 39.6729 15.3982 40.5957 16.7944 41.165L17.7493 41.5543H10.7545C10.2626 41.5543 9.86243 41.1541 9.86243 40.6623V38.928C9.86243 38.5495 9.55559 38.2426 9.17703 38.2426C8.79847 38.2426 8.49162 38.5495 8.49162 38.928V40.6623C8.49162 41.91 9.50665 42.9252 10.7545 42.9252H21.1113L29.9407 46.5253C30.2447 46.6493 30.5591 46.7081 30.8688 46.708C31.8418 46.708 32.766 46.1281 33.1555 45.1729C33.3153 44.7811 33.3665 44.3716 33.3235 43.978C33.7828 44.0439 34.2589 43.9834 34.6906 43.797C35.1292 43.6076 35.4928 43.3058 35.751 42.9251H48.7372C49.9849 42.9251 51 41.91 51 40.6622V9.23429C50.9999 9.23335 50.9999 9.2326 50.9999 9.23166ZM26.8375 4.66305H32.6539L33.5531 8.54888H25.9384L26.8375 4.66305ZM24.5314 8.54888H10.1806L11.6985 4.66305H25.4305L24.5314 8.54888ZM33.73 19.5965H33.7299L30.4335 16.6761C30.2375 16.5025 29.9916 16.4157 29.7459 16.4157C29.5001 16.4157 29.2542 16.5025 29.0582 16.6761L25.7618 19.5965V9.91969H33.73V19.5965V19.5965ZM8.04237 35.4525L4.37272 33.9563L8.86953 22.928L12.5392 24.4244L8.04237 35.4525ZM35.4253 39.5889L34.6386 39.2681C34.6383 39.2679 34.6379 39.2678 34.6375 39.2676C34.6372 39.2675 34.6369 39.2673 34.6367 39.2672C34.6366 39.2672 34.6365 39.2671 34.6364 39.2671L26.444 35.9267C26.0935 35.7839 25.6935 35.952 25.5505 36.3027C25.4076 36.6532 25.5758 37.0532 25.9265 37.1962L34.1191 40.5367C34.1533 40.5507 34.1864 40.5661 34.2184 40.5831C34.2274 40.5879 34.2357 40.5937 34.2445 40.5987C34.267 40.6114 34.2896 40.6242 34.3109 40.6383C34.3211 40.6452 34.3305 40.653 34.3404 40.6602C34.3593 40.6737 34.3785 40.687 34.3963 40.7016C34.4071 40.7104 34.4168 40.7203 34.4272 40.7294C34.4432 40.7436 34.4595 40.7573 34.4745 40.7723C34.4849 40.7826 34.4942 40.7939 34.5041 40.8046C34.5179 40.8194 34.532 40.834 34.545 40.8495C34.5548 40.8614 34.5634 40.8741 34.5728 40.8864C34.5845 40.9018 34.5967 40.9169 34.6075 40.9328C34.6166 40.9461 34.6244 40.9602 34.6328 40.9738C34.6426 40.9895 34.6529 41.005 34.6618 41.0212C34.6699 41.0358 34.6766 41.0511 34.684 41.066C34.6919 41.082 34.7004 41.0978 34.7075 41.1142C34.7144 41.1299 34.7199 41.1463 34.726 41.1623C34.7322 41.1785 34.7389 41.1944 34.7444 41.2109C34.7498 41.2275 34.7539 41.2445 34.7585 41.2613C34.7631 41.2779 34.7683 41.2942 34.7721 41.311C34.776 41.3279 34.7784 41.3452 34.7815 41.3623C34.7846 41.3793 34.7882 41.3962 34.7904 41.4134C34.7927 41.4307 34.7935 41.4481 34.7949 41.4655C34.7963 41.4829 34.7984 41.5003 34.7989 41.5177C34.7995 41.5348 34.7987 41.5522 34.7985 41.5694C34.7983 41.5873 34.7986 41.6051 34.7974 41.623C34.7964 41.6399 34.7939 41.6569 34.792 41.6739C34.79 41.6922 34.7885 41.7104 34.7855 41.7286C34.7828 41.7453 34.7786 41.7619 34.7751 41.7786C34.7712 41.7971 34.7679 41.8155 34.7629 41.8339C34.7586 41.8501 34.7528 41.8663 34.7477 41.8824C34.7419 41.9008 34.7365 41.9191 34.7297 41.9372C34.7239 41.9497 34.7181 41.9623 34.7128 41.9749C34.7116 41.9778 34.7109 41.9808 34.7098 41.9836C34.6027 42.2308 34.4051 42.4273 34.147 42.5387C33.8629 42.6613 33.5377 42.6656 33.2546 42.5501L31.8031 41.9582C31.7963 41.9555 31.7895 41.9536 31.7827 41.9511C31.7759 41.948 31.7694 41.9444 31.7625 41.9416L25.0991 39.2247C24.7484 39.0818 24.3486 39.25 24.2057 39.6006C24.0627 39.9511 24.231 40.3512 24.5815 40.4941L31.2449 43.2111C31.252 43.214 31.2592 43.2161 31.2665 43.2187C31.2729 43.2215 31.2789 43.225 31.2856 43.2276C31.8448 43.4557 32.1143 44.0962 31.8863 44.6554C31.6582 45.2148 31.018 45.4844 30.4585 45.2562L21.5059 41.6057C21.5055 41.6055 21.5051 41.6054 21.5048 41.6052L17.3123 39.8956C16.5743 39.5947 15.889 39.177 15.284 38.6632C14.921 38.3549 14.587 38.012 14.2877 37.6389C13.9929 37.2713 13.6694 36.9285 13.3214 36.6134C12.5558 35.9203 11.6712 35.3618 10.7113 34.9703C10.7112 34.9703 10.7111 34.9702 10.7111 34.9702L9.86112 34.6237L11.554 30.472L13.1537 26.5487L13.2717 26.5968C13.3828 26.642 13.5413 26.7063 13.9676 26.7225C14.5003 26.7466 15.3816 26.691 16.9603 26.4679C18.0342 26.3163 19.3515 26.0969 20.8893 25.8139C20.9272 25.807 20.9648 25.8001 21.003 25.793C21.0749 25.7797 21.1476 25.7662 21.2205 25.7527C21.2772 25.7422 21.3342 25.7315 21.3917 25.7208C21.4571 25.7085 21.5228 25.6962 21.589 25.6837C21.6593 25.6705 21.7303 25.6571 21.8018 25.6435C21.8589 25.6326 21.916 25.6218 21.9738 25.6109C22.0609 25.5943 22.1495 25.5773 22.2383 25.5603C22.2841 25.5514 22.3294 25.5428 22.3755 25.534C22.5116 25.5078 22.6495 25.4811 22.79 25.4539C26.7519 24.6832 30.576 23.8255 30.7478 23.7869C30.765 23.7833 30.7821 23.7813 30.7993 23.7787C31.2395 23.7136 31.6709 23.9682 31.7972 24.379C31.8415 24.5234 31.8467 24.6707 31.8187 24.8092C31.7573 25.1142 31.5357 25.3774 31.2189 25.4753L24.4237 27.5785C24.1471 27.6642 23.9542 27.9142 23.9417 28.2035C23.9291 28.4927 24.0996 28.7587 24.3677 28.868L36.8087 33.9409C37.0796 34.0514 37.2913 34.2607 37.4047 34.5304C37.5182 34.8001 37.5198 35.0979 37.4093 35.3687C37.2988 35.6397 37.0895 35.8514 36.8198 35.9648C36.685 36.0214 36.5432 36.0501 36.4011 36.051C36.3991 36.051 36.397 36.0507 36.3949 36.0507C36.3616 36.0507 36.3283 36.0494 36.295 36.0463C36.2852 36.0453 36.2754 36.0433 36.2656 36.0421C36.2402 36.039 36.2148 36.0361 36.1895 36.0313C36.1736 36.0282 36.1579 36.0235 36.142 36.0197C36.1231 36.0152 36.104 36.0114 36.0853 36.0059C36.0659 36.0001 36.0468 35.9925 36.0277 35.9857C36.0125 35.9803 35.9971 35.9758 35.9821 35.9697L27.7887 32.6288C27.4382 32.4858 27.0382 32.6541 26.8953 33.0047C26.7523 33.3553 26.9206 33.7553 27.2712 33.8983L37.2045 37.9485C37.2723 37.9761 37.3363 38.0099 37.396 38.0493C37.5752 38.1674 37.7155 38.3357 37.8005 38.538C37.8998 38.774 37.9135 39.0314 37.8413 39.2736C37.831 39.3082 37.8189 39.3425 37.8051 39.3764C37.7909 39.4113 37.775 39.4452 37.7577 39.4778C37.7173 39.5537 37.6681 39.6224 37.6131 39.6849C37.579 39.7237 37.5425 39.7599 37.5037 39.7931C37.4975 39.7983 37.4919 39.8043 37.4856 39.8094C37.2355 40.0139 36.9011 40.1019 36.5744 40.0359C36.5081 40.0225 36.4422 40.0034 36.3773 39.977L35.4253 39.5889Z" fill="black"/>
</g>
<defs>
<filter id="filter0_d" x="0" y="-2" width="62" height="62" filterUnits="userSpaceOnUse" color-interpolation-filters="sRGB">
<feFlood flood-opacity="0" result="BackgroundImageFix"/>
<feColorMatrix in="SourceAlpha" type="matrix" values="0 0 0 0 0 0 0 0 0 0 0 0 0 0 0 0 0 0 127 0"/>
<feOffset dx="4" dy="4"/>
<feGaussianBlur stdDeviation="3.5"/>
<feColorMatrix type="matrix" values="0 0 0 0 0 0 0 0 0 0 0 0 0 0 0 0 0 0 0.25 0"/>
<feBlend mode="normal" in2="BackgroundImageFix" result="effect1_dropShadow"/>
<feBlend mode="normal" in="SourceGraphic" in2="effect1_dropShadow" result="shape"/>
</filter>
<clipPath id="clip0">
<rect width="48" height="48" fill="white" transform="translate(3 1)"/>
</clipPath>
</defs>
</svg>
