<svg width="62" height="58" viewBox="0 0 62 58" fill="none" xmlns="http://www.w3.org/2000/svg">
<g filter="url(#filter0_d)">
<path d="M41.1599 37.1141C40.7344 36.819 40.1502 36.9251 39.8554 37.3507C39.5696 37.7632 39.2458 38.1642 38.8925 38.5429C38.6557 38.7968 38.3301 39.103 37.9757 39.4045C37.5814 39.7402 37.5338 40.3318 37.8693 40.7262C38.0547 40.9441 38.3184 41.056 38.5837 41.056C38.7985 41.056 39.0144 40.9826 39.191 40.8324C39.6044 40.4805 39.9756 40.131 40.2637 39.8215C40.6783 39.3773 41.0595 38.9053 41.3966 38.4186C41.6915 37.993 41.5855 37.409 41.1599 37.1141Z" fill="black"/>
<path d="M37.0756 41.3179C36.8557 40.8492 36.2977 40.6474 35.8288 40.8673L35.7994 40.8805C35.3257 41.0894 35.1112 41.6429 35.3203 42.1167C35.475 42.4673 35.8183 42.6759 36.1784 42.6759C36.3049 42.6759 36.4334 42.6501 36.5564 42.5958C36.5793 42.5858 36.602 42.5755 36.6248 42.5649C37.0935 42.3449 37.2954 41.7868 37.0756 41.3179Z" fill="black"/>
<path d="M48.1992 3.4375H5.80078C4.25634 3.4375 3 4.69403 3 6.23828V32.5118C3 34.056 4.25634 35.3124 5.80078 35.3124H25.5432C26.3801 38.8534 28.2726 41.3612 29.9266 42.9679C32.3409 45.3133 35.1084 46.5623 36.178 46.5623C37.2475 46.5623 40.015 45.3134 42.4293 42.968C44.0833 41.3612 45.9759 38.8534 46.8128 35.3125H48.1992C49.7436 35.3125 51 34.0561 51 32.5119V6.23828C51 4.69403 49.7436 3.4375 48.1992 3.4375ZM45.3749 31.4704C45.375 36.4099 43.0949 39.6863 41.1821 41.5652C38.913 43.7939 36.5855 44.6608 36.178 44.6871C35.7703 44.6608 33.4427 43.794 31.1737 41.5652C29.261 39.6863 26.9809 36.4099 26.9809 31.4704V26.8536C30.2087 25.9201 33.229 24.6426 36.1782 22.9637C39.0611 24.5999 42.2167 25.9343 45.3749 26.853V31.4704ZM49.125 32.5118C49.125 33.0222 48.7096 33.4374 48.1992 33.4374H47.1388C47.2106 32.8092 47.25 32.1541 47.25 31.4704V26.1428C47.25 25.7196 46.9665 25.349 46.5582 25.2381C43.1539 24.3136 39.7282 22.8731 36.6515 21.0722C36.359 20.901 35.9969 20.9012 35.7043 21.0724C32.5404 22.9243 29.2999 24.2868 25.7977 25.2381C25.3894 25.3491 25.1059 25.7197 25.1059 26.1428V31.4704C25.1059 32.1541 25.1452 32.8092 25.2171 33.4374H5.80078C5.29031 33.4374 4.875 33.0221 4.875 32.5118V16.5623H49.125V32.5118ZM49.125 14.6874H4.875V10.9376H49.125V14.6874ZM49.125 9.06249H4.875V6.23828C4.875 5.72781 5.29031 5.3125 5.80078 5.3125H48.1992C48.7096 5.3125 49.125 5.72781 49.125 6.23828V9.06249Z" fill="black"/>
<path d="M14.2497 23.1252C13.6845 23.1252 13.1264 23.2395 12.6099 23.4574C12.1052 23.2436 11.5506 23.1252 10.969 23.1252C8.64274 23.1252 6.75012 25.0177 6.75012 27.3438C6.75012 29.6699 8.64265 31.5626 10.969 31.5626C11.5506 31.5626 12.1052 31.4442 12.6098 31.2304C13.1264 31.4483 13.6845 31.5626 14.2497 31.5626C16.576 31.5626 18.4687 29.6699 18.4687 27.3438C18.4687 25.0177 16.576 23.1252 14.2497 23.1252ZM10.969 29.6876C9.67652 29.6876 8.62512 28.6362 8.62512 27.3438C8.62512 26.0515 9.67652 25.0002 10.969 25.0002C12.2612 25.0002 13.3126 26.0515 13.3126 27.3438C13.3126 28.6361 12.2612 29.6876 10.969 29.6876ZM14.4821 29.6761C14.9274 29.0076 15.1876 28.2056 15.1876 27.3439C15.1876 26.4822 14.9274 25.6804 14.4822 25.0119C15.6658 25.1289 16.5936 26.1301 16.5936 27.3439C16.5936 28.5577 15.6658 29.559 14.4821 29.6761Z" fill="black"/>
<path d="M12.5096 18.9062H7.68738C7.1696 18.9062 6.74988 19.326 6.74988 19.8437C6.74988 20.3614 7.1696 20.7812 7.68738 20.7812H12.5096C13.0274 20.7812 13.4471 20.3613 13.4471 19.8437C13.4471 19.326 13.0274 18.9062 12.5096 18.9062Z" fill="black"/>
<path d="M15.2809 18.9062H15.2364C14.7187 18.9062 14.299 19.326 14.299 19.8437C14.299 20.3614 14.7187 20.7812 15.2364 20.7812H15.2809C15.7986 20.7812 16.2184 20.3613 16.2184 19.8437C16.2184 19.326 15.7986 18.9062 15.2809 18.9062Z" fill="black"/>
<path d="M41.324 29.3148C40.9581 28.9489 40.3646 28.9487 39.9983 29.3147L34.9849 34.3278L32.3577 31.7004C31.9915 31.3346 31.3979 31.3344 31.0318 31.7004C30.6657 32.0666 30.6656 32.6603 31.0318 33.0264L34.322 36.3166C34.505 36.4997 34.745 36.5913 34.9849 36.5913C35.2248 36.5913 35.4648 36.4997 35.6477 36.3166L41.3239 30.6407C41.6901 30.2747 41.6901 29.6811 41.324 29.3148Z" fill="black"/>
</g>
<defs>
<filter id="filter0_d" x="0" y="-2" width="62" height="62" filterUnits="userSpaceOnUse" color-interpolation-filters="sRGB">
<feFlood flood-opacity="0" result="BackgroundImageFix"/>
<feColorMatrix in="SourceAlpha" type="matrix" values="0 0 0 0 0 0 0 0 0 0 0 0 0 0 0 0 0 0 127 0"/>
<feOffset dx="4" dy="4"/>
<feGaussianBlur stdDeviation="3.5"/>
<feColorMatrix type="matrix" values="0 0 0 0 0 0 0 0 0 0 0 0 0 0 0 0 0 0 0.25 0"/>
<feBlend mode="normal" in2="BackgroundImageFix" result="effect1_dropShadow"/>
<feBlend mode="normal" in="SourceGraphic" in2="effect1_dropShadow" result="shape"/>
</filter>
</defs>
</svg>
