<svg width="43" height="43" viewBox="0 0 43 43" fill="none" xmlns="http://www.w3.org/2000/svg">
<path d="M34.1847 32.3523C33.8035 32.088 33.2802 32.183 33.0161 32.5642C32.7601 32.9338 32.47 33.293 32.1535 33.6322C31.9414 33.8598 31.6496 34.134 31.3322 34.4041C30.979 34.7048 30.9363 35.2348 31.2369 35.5881C31.403 35.7833 31.6392 35.8836 31.8769 35.8836C32.0693 35.8836 32.2627 35.8178 32.4209 35.6833C32.7912 35.368 33.1237 35.0549 33.3819 34.7777C33.7533 34.3798 34.0948 33.9569 34.3968 33.5209C34.6609 33.1397 34.566 32.6165 34.1847 32.3523Z" fill="black"/>
<path d="M30.526 36.1181C30.329 35.6982 29.8291 35.5175 29.409 35.7144L29.3828 35.7263C28.9584 35.9135 28.7662 36.4093 28.9536 36.8337C29.0922 37.1478 29.3997 37.3346 29.7223 37.3346C29.8356 37.3346 29.9507 37.3116 30.0609 37.2629C30.0814 37.2539 30.1017 37.2447 30.1222 37.2352C30.5421 37.0382 30.7229 36.5382 30.526 36.1181Z" fill="black"/>
<path d="M40.491 2.18365H2.50903C1.12547 2.18365 0 3.3093 0 4.69268V28.2294C0 29.6127 1.12547 30.7383 2.50903 30.7383H20.1949C20.9447 33.9104 22.64 36.1569 24.1218 37.5963C26.2845 39.6974 28.7638 40.8163 29.7219 40.8163C30.68 40.8163 33.1592 39.6975 35.3221 37.5964C36.8038 36.1569 38.4993 33.9104 39.2489 30.7384H40.491C41.8744 30.7384 43 29.6128 43 28.2295V4.69268C43 3.3093 41.8744 2.18365 40.491 2.18365ZM37.9609 27.2964C37.9609 31.7214 35.9184 34.6566 34.2048 36.3397C32.1721 38.3363 30.087 39.1129 29.7219 39.1365C29.3568 39.1129 27.2716 38.3363 25.2389 36.3397C23.5255 34.6566 21.4829 31.7214 21.4829 27.2964V23.1606C24.3745 22.3243 27.0801 21.1799 29.7222 19.6759C32.3047 21.1417 35.1316 22.337 37.9609 23.1601V27.2964ZM41.3203 28.2294C41.3203 28.6866 40.9482 29.0586 40.491 29.0586H39.541C39.6054 28.4958 39.6406 27.9089 39.6406 27.2964V22.5238C39.6406 22.1447 39.3867 21.8127 39.0209 21.7133C35.9712 20.8852 32.9023 19.5947 30.1461 17.9814C29.8841 17.8281 29.5598 17.8282 29.2976 17.9816C26.4633 19.6406 23.5603 20.8612 20.4229 21.7133C20.0572 21.8128 19.8032 22.1448 19.8032 22.5238V27.2964C19.8032 27.9089 19.8384 28.4958 19.9028 29.0586H2.50903C2.05173 29.0586 1.67968 28.6865 1.67968 28.2294V13.9413H41.3203V28.2294ZM41.3203 12.2617H1.67968V8.90247H41.3203V12.2617ZM41.3203 7.22271H1.67968V4.69268C1.67968 4.23539 2.05173 3.86334 2.50903 3.86334H40.491C40.9482 3.86334 41.3203 4.23539 41.3203 4.69268V7.22271Z" fill="black"/>
<path d="M10.0778 19.8205C9.57143 19.8205 9.07147 19.9229 8.60872 20.1181C8.15663 19.9265 7.65978 19.8205 7.13875 19.8205C5.05485 19.8205 3.35938 21.5158 3.35938 23.5997C3.35938 25.6835 5.05476 27.379 7.13875 27.379C7.65978 27.379 8.15663 27.273 8.60864 27.0814C9.07147 27.2766 9.57143 27.379 10.0778 27.379C12.1618 27.379 13.8572 25.6835 13.8572 23.5997C13.8572 21.5158 12.1618 19.8205 10.0778 19.8205ZM7.13875 25.6993C5.98094 25.6993 5.03906 24.7575 5.03906 23.5997C5.03906 22.4419 5.98094 21.5002 7.13875 21.5002C8.29638 21.5002 9.23827 22.4419 9.23827 23.5997C9.23827 24.7574 8.29638 25.6993 7.13875 25.6993ZM10.286 25.689C10.6849 25.0901 10.918 24.3717 10.918 23.5998C10.918 22.8279 10.6849 22.1095 10.2861 21.5106C11.3464 21.6155 12.1775 22.5124 12.1775 23.5998C12.1775 24.6871 11.3464 25.5841 10.286 25.689Z" fill="black"/>
<path d="M8.51912 16.0411H4.19922C3.73537 16.0411 3.35938 16.4171 3.35938 16.8809C3.35938 17.3447 3.73537 17.7208 4.19922 17.7208H8.51912C8.98296 17.7208 9.35896 17.3446 9.35896 16.8809C9.35896 16.4171 8.98296 16.0411 8.51912 16.0411Z" fill="black"/>
<path d="M11.0017 16.0411H10.9619C10.4981 16.0411 10.1221 16.4171 10.1221 16.8809C10.1221 17.3447 10.4981 17.7208 10.9619 17.7208H11.0017C11.4655 17.7208 11.8416 17.3446 11.8416 16.8809C11.8416 16.4171 11.4655 16.0411 11.0017 16.0411Z" fill="black"/>
<path d="M34.3318 25.3654C34.0041 25.0376 33.4723 25.0374 33.1442 25.3653L28.653 29.8562L26.2995 27.5026C25.9715 27.1748 25.4397 27.1747 25.1117 27.5026C24.7838 27.8306 24.7837 28.3624 25.1117 28.6903L28.0591 31.6378C28.2232 31.8019 28.4381 31.8839 28.653 31.8839C28.8679 31.8839 29.0829 31.8019 29.2468 31.6378L34.3318 26.5532C34.6598 26.2253 34.6598 25.6935 34.3318 25.3654Z" fill="black"/>
</svg>
